<svg xmlns="http://www.w3.org/2000/svg" viewBox="0 0 544.62 191.99"><defs><style>.cls-1,.cls-11,.cls-12,.cls-13,.cls-14,.cls-2,.cls-3,.cls-4,.cls-5{fill:none;stroke:#000;}.cls-1,.cls-12,.cls-3,.cls-5{stroke-linecap:round;}.cls-1,.cls-2,.cls-3{stroke-miterlimit:10;}.cls-1,.cls-11,.cls-12{stroke-width:0.5px;}.cls-14,.cls-2{stroke-width:0.95px;}.cls-3{stroke-width:1px;}.cls-11,.cls-12,.cls-13,.cls-14,.cls-4,.cls-5{stroke-linejoin:round;}.cls-4,.cls-5{stroke-width:0.4px;}.cls-6{font-size:10.96px;}.cls-15,.cls-6{font-family:TeXGyreSchola-Regular, TeX Gyre Schola;}.cls-7{letter-spacing:0em;}.cls-8{letter-spacing:0em;}.cls-9{letter-spacing:0em;}.cls-10{letter-spacing:0em;}.cls-13{stroke-width:2.99px;}.cls-15{font-size:8.7px;}</style></defs><title>Asset 2</title><g id="Layer_2" data-name="Layer 2"><g id="Layer_1-2" data-name="Layer 1"><line class="cls-1" x1="48.81" y1="41.99" x2="544.37" y2="41.99"/><line class="cls-1" x1="48.81" y1="37.01" x2="544.37" y2="37.01"/><line class="cls-1" x1="48.81" y1="32.03" x2="544.37" y2="32.03"/><line class="cls-1" x1="48.81" y1="27.04" x2="544.37" y2="27.04"/><line class="cls-1" x1="48.81" y1="22.06" x2="544.37" y2="22.06"/><line class="cls-2" x1="544.15" y1="66.9" x2="544.15" y2="42.24"/><line class="cls-2" x1="544.15" y1="86.82" x2="544.15" y2="66.65"/><line class="cls-2" x1="544.15" y1="42.24" x2="544.15" y2="22.06"/><line class="cls-1" x1="48.81" y1="86.82" x2="544.37" y2="86.82"/><line class="cls-1" x1="48.81" y1="81.84" x2="544.37" y2="81.84"/><line class="cls-1" x1="48.81" y1="76.86" x2="544.37" y2="76.86"/><line class="cls-1" x1="48.81" y1="71.88" x2="544.37" y2="71.88"/><line class="cls-1" x1="48.81" y1="66.9" x2="544.37" y2="66.9"/><line class="cls-3" x1="370.35" y1="46.97" x2="379.1" y2="46.97"/><line class="cls-3" x1="187.53" y1="46.97" x2="196.28" y2="46.97"/><path d="M429,18.64a3.67,3.67,0,0,1-2,3,4.53,4.53,0,0,1-2.31.68c-1.1,0-2.15-.56-2.15-1.77a3.67,3.67,0,0,1,2-3,4.53,4.53,0,0,1,2.31-.68C427.92,16.86,429,17.42,429,18.64Z"/><rect class="cls-4" x="422.67" y="20.7" width="0.25" height="28.59"/><rect x="422.67" y="20.7" width="0.25" height="28.59"/><path d="M449.06,23.62a3.67,3.67,0,0,1-2,3,4.53,4.53,0,0,1-2.31.68c-1.1,0-2.15-.56-2.15-1.77a3.67,3.67,0,0,1,2-3,4.53,4.53,0,0,1,2.31-.68C448,21.84,449.06,22.4,449.06,23.62Z"/><rect class="cls-4" x="442.76" y="25.68" width="0.25" height="25.08"/><rect x="442.76" y="25.68" width="0.25" height="25.08"/><polygon class="cls-4" points="103.69 0.2 103.69 2.19 194.95 9.06 194.95 7.07 103.69 0.2"/><polygon points="103.69 0.2 103.69 2.19 194.95 9.06 194.95 7.07 103.69 0.2"/><polygon class="cls-4" points="103.69 4.23 103.69 6.22 194.95 13.1 194.95 11.11 103.69 4.23"/><polygon points="103.69 4.23 103.69 6.22 194.95 13.1 194.95 11.11 103.69 4.23"/><polygon class="cls-4" points="189.55 14.71 189.55 16.7 194.95 17.13 194.95 15.14 189.55 14.71"/><polygon points="189.55 14.71 189.55 16.7 194.95 17.13 194.95 15.14 189.55 14.71"/><polygon class="cls-4" points="130.7 10.29 130.7 12.28 146.45 13.49 146.45 11.5 130.7 10.29"/><polygon points="130.7 10.29 130.7 12.28 146.45 13.49 146.45 11.5 130.7 10.29"/><path d="M343.38,32.78c-.42,0-.6-.5-.9-.76-1.22-1-2.93-1.77-2.93-3.37a1.91,1.91,0,0,1,1.77-2,2.87,2.87,0,0,1,1.81.68L343,20.43a1,1,0,0,1,1.08,0l-.24,11.86A.47.47,0,0,1,343.38,32.78Zm-1.43-5.32c-.58,0-.86.68-.86,1.34,0,1.18,1,2,1.85,2.77a9.71,9.71,0,0,0,.08-1.32V30l0-1.32A1.18,1.18,0,0,0,341.94,27.46Z"/><path d="M378,46a3.67,3.67,0,0,1-2,3,4.53,4.53,0,0,1-2.31.68c-1.1,0-2.15-.56-2.15-1.77a3.67,3.67,0,0,1,2-3,4.53,4.53,0,0,1,2.31-.68C376.92,44.26,378,44.82,378,46Z"/><rect class="cls-4" x="377.53" y="3.29" width="0.25" height="42.56"/><rect x="377.53" y="3.29" width="0.25" height="42.56"/><path d="M396,18.64a3.67,3.67,0,0,1-2,3,4.53,4.53,0,0,1-2.31.68c-1.1,0-2.15-.56-2.15-1.77a3.67,3.67,0,0,1,2-3,4.53,4.53,0,0,1,2.31-.68C394.92,16.86,396,17.42,396,18.64Zm3.36-.18a1.12,1.12,0,1,1-1.12,1.12A1.11,1.11,0,0,1,399.33,18.46Z"/><rect class="cls-4" x="395.52" y="3.28" width="0.25" height="15.16"/><rect x="395.52" y="3.28" width="0.25" height="15.16"/><path d="M118.38,10.47a1,1,0,0,1,1.08,0l-.14,6.88a2.87,2.87,0,0,1,1.81-.68,1.91,1.91,0,0,1,1.77,2c0,1.59-1.71,2.33-2.93,3.37-.3.26-.48.76-.9.76a.47.47,0,0,1-.46-.5Zm1.06,9.61v.22a9.71,9.71,0,0,0,.08,1.32c.9-.76,1.85-1.59,1.85-2.77,0-.66-.28-1.34-.86-1.34a1.18,1.18,0,0,0-1.06,1.26Z"/><path d="M508.46,42.75c-.42,0-.6-.5-.9-.76-1.22-1-2.93-1.77-2.93-3.37a1.91,1.91,0,0,1,1.77-2,2.87,2.87,0,0,1,1.81.68l-.14-6.88a1,1,0,0,1,1.08,0l-.24,11.86A.47.47,0,0,1,508.46,42.75ZM507,37.43c-.58,0-.86.68-.86,1.34,0,1.18,1,2,1.85,2.77a9.71,9.71,0,0,0,.08-1.32V40l0-1.32A1.18,1.18,0,0,0,507,37.43Z"/><path d="M131.15,18.64a3.67,3.67,0,0,1-2,3,4.53,4.53,0,0,1-2.31.68c-1.1,0-2.15-.56-2.15-1.77a3.67,3.67,0,0,1,2-3,4.53,4.53,0,0,1,2.31-.68C130.09,16.86,131.15,17.42,131.15,18.64Z"/><rect class="cls-4" x="130.7" y="3.44" width="0.25" height="15.01"/><rect x="130.7" y="3.44" width="0.25" height="15.01"/><path d="M104.14,31.09a3.67,3.67,0,0,1-2,3,4.53,4.53,0,0,1-2.31.68c-1.1,0-2.15-.56-2.15-1.77a3.67,3.67,0,0,1,2-3,4.53,4.53,0,0,1,2.31-.68C103.09,29.32,104.14,29.87,104.14,31.09Z"/><polygon class="cls-4" points="494.25 45.64 494.25 47.63 499.66 48.06 499.66 46.07 494.25 45.64"/><polygon points="494.25 45.64 494.25 47.63 499.66 48.06 499.66 46.07 494.25 45.64"/><polygon class="cls-4" points="422.67 40.39 422.67 42.39 477.75 46.46 477.75 44.47 422.67 40.39"/><polygon points="422.67 40.39 422.67 42.39 477.75 46.46 477.75 44.47 422.67 40.39"/><polygon class="cls-4" points="422.67 44.43 422.67 46.42 511.25 52.95 511.25 50.96 422.67 44.43"/><polygon points="422.67 44.43 422.67 46.42 511.25 52.95 511.25 50.96 422.67 44.43"/><polygon class="cls-4" points="422.67 48.46 422.67 50.45 511.25 56.98 511.25 54.99 422.67 48.46"/><polygon points="422.67 48.46 422.67 50.45 511.25 56.98 511.25 54.99 422.67 48.46"/><path class="cls-5" d="M397.64,17.08c4.34-4.07,19.5-4.07,23.84,0C417.14,13.6,402,13.6,397.64,17.08Z"/><path d="M397.64,17.08c4.34-4.07,19.5-4.07,23.84,0-4.34-3.48-19.5-3.48-23.84,0"/><rect class="cls-4" x="311.91" y="2.09" width="83.86" height="1.99"/><rect x="311.91" y="2.09" width="83.86" height="1.99"/><rect class="cls-4" x="311.91" y="6.13" width="83.86" height="1.99"/><rect x="311.91" y="6.13" width="83.86" height="1.99"/><rect class="cls-4" x="377.53" y="10.16" width="5.4" height="1.99"/><rect x="377.53" y="10.16" width="5.4" height="1.99"/><rect class="cls-4" x="311.91" y="10.16" width="20.18" height="1.99"/><rect x="311.91" y="10.16" width="20.18" height="1.99"/><path class="cls-5" d="M280.35,17.08c4.41-4.1,20.1-4.1,24.51,0C300.45,13.57,284.76,13.57,280.35,17.08Z"/><path d="M280.35,17.08c4.41-4.1,20.1-4.1,24.51,0-4.41-3.51-20.1-3.51-24.51,0"/><polygon class="cls-4" points="249.59 31.98 249.59 33.97 254.99 33.6 254.99 31.6 249.59 31.98"/><polygon points="249.59 31.98 249.59 33.97 254.99 33.6 254.99 31.6 249.59 31.98"/><polygon class="cls-4" points="249.59 36.01 249.59 38.01 273.31 36.46 273.31 34.47 249.59 36.01"/><polygon points="249.59 36.01 249.59 38.01 273.31 36.46 273.31 34.47 249.59 36.01"/><polygon class="cls-4" points="249.59 40.05 249.59 42.04 273.31 40.49 273.31 38.5 249.59 40.05"/><polygon points="249.59 40.05 249.59 42.04 273.31 40.49 273.31 38.5 249.59 40.05"/><path class="cls-5" d="M144.4,38.13c3.22,3.46,11.54,3.46,14.76,0C155.93,41,147.62,41,144.4,38.13Z"/><path d="M144.4,38.13c3.22,3.46,11.54,3.46,14.76,0-3.22,2.86-11.54,2.86-14.76,0"/><path d="M91.76,35.27c-.42,0-.6-.5-.9-.76-1.22-1-2.93-1.77-2.93-3.37a1.91,1.91,0,0,1,1.77-2,2.85,2.85,0,0,1,1.81.66l-.14-6.86a1,1,0,0,1,1.08,0l-.14,6.86a2.85,2.85,0,0,1,1.81-.66,1.91,1.91,0,0,1,1.77,2c0,1.59-1.71,2.33-2.93,3.37-.3.26-.48.76-.9.76ZM90.32,30c-.58,0-.86.68-.86,1.34,0,1.18,1,2,1.85,2.77a9.71,9.71,0,0,0,.08-1.32v-.22l0-1.32A1.18,1.18,0,0,0,90.32,30Zm2.11,2.57v.22a9.71,9.71,0,0,0,.08,1.32c.9-.76,1.85-1.59,1.85-2.77,0-.66-.28-1.34-.86-1.34a1.18,1.18,0,0,0-1.06,1.26Z"/><path d="M465.81,26.11a3.67,3.67,0,0,1-2,3,4.53,4.53,0,0,1-2.31.68c-1.1,0-2.15-.56-2.15-1.77a3.67,3.67,0,0,1,2-3,4.53,4.53,0,0,1,2.31-.68C464.75,24.33,465.81,24.89,465.81,26.11Z"/><rect class="cls-4" x="459.51" y="28.17" width="0.25" height="23.82"/><rect x="459.51" y="28.17" width="0.25" height="23.82"/><path d="M483.8,21.13a3.67,3.67,0,0,1-2,3,4.53,4.53,0,0,1-2.31.68c-1.1,0-2.15-.56-2.15-1.77a3.67,3.67,0,0,1,2-3,4.53,4.53,0,0,1,2.31-.68C482.75,19.35,483.8,19.91,483.8,21.13Z"/><rect class="cls-4" x="477.5" y="23.19" width="0.25" height="30.12"/><rect x="477.5" y="23.19" width="0.25" height="30.12"/><path d="M436.29,15.45a1,1,0,0,1,1.08,0l-.14,6.88a2.87,2.87,0,0,1,1.81-.68,1.91,1.91,0,0,1,1.77,2c0,1.59-1.71,2.33-2.93,3.37-.3.26-.48.76-.9.76a.47.47,0,0,1-.46-.5Zm1.06,9.61v.22a9.71,9.71,0,0,0,.08,1.32c.9-.76,1.85-1.59,1.85-2.77,0-.66-.28-1.34-.86-1.34a1.18,1.18,0,0,0-1.06,1.26Z"/><path d="M500.55,18.64a3.67,3.67,0,0,1-2,3,4.53,4.53,0,0,1-2.31.68c-1.1,0-2.15-.56-2.15-1.77a3.67,3.67,0,0,1,2-3,4.53,4.53,0,0,1,2.31-.68C499.5,16.86,500.55,17.42,500.55,18.64Z"/><rect class="cls-4" x="494.25" y="20.7" width="0.25" height="33.84"/><rect x="494.25" y="20.7" width="0.25" height="33.84"/><path d="M517.3,38.56a3.67,3.67,0,0,1-2,3,4.53,4.53,0,0,1-2.31.68c-1.1,0-2.15-.56-2.15-1.77a3.67,3.67,0,0,1,2-3,4.53,4.53,0,0,1,2.31-.68C516.24,36.79,517.3,37.35,517.3,38.56Zm3.36-.18a1.12,1.12,0,1,1-1.12,1.12A1.11,1.11,0,0,1,520.66,38.38Z"/><rect class="cls-4" x="511" y="40.63" width="0.25" height="15.14"/><rect x="511" y="40.63" width="0.25" height="15.14"/><path d="M212.46,44.28v-5h.32c1.93-1.18,4.46-2.95,4.46-5.16a7.37,7.37,0,0,0-.8-3.25.45.45,0,0,1,.46-.54.46.46,0,0,1,.4.22,8.79,8.79,0,0,1,.8,3.57c0,4-5.32,6.1-5.32,10.14Z"/><path d="M195.15,46a3.67,3.67,0,0,1-2,3,4.53,4.53,0,0,1-2.31.68c-1.1,0-2.15-.56-2.15-1.77a3.67,3.67,0,0,1,2-3,4.53,4.53,0,0,1,2.31-.68C194.1,44.26,195.15,44.82,195.15,46Z"/><rect class="cls-4" x="194.71" y="8.24" width="0.25" height="37.6"/><rect x="194.71" y="8.24" width="0.25" height="37.6"/><path d="M218.63,26.11a3.67,3.67,0,0,1-2,3,4.53,4.53,0,0,1-2.31.68c-1.1,0-2.15-.56-2.15-1.77a3.67,3.67,0,0,1,2-3,4.53,4.53,0,0,1,2.31-.68C217.57,24.33,218.63,24.89,218.63,26.11Z"/><rect class="cls-4" x="212.33" y="28.17" width="0.25" height="16.11"/><rect x="212.33" y="28.17" width="0.25" height="16.11"/><path d="M206.24,30.29c-.42,0-.6-.5-.9-.76-1.22-1-2.93-1.77-2.93-3.37a1.91,1.91,0,0,1,1.77-2,2.85,2.85,0,0,1,1.81.66l-.14-6.86a1,1,0,0,1,1.08,0l-.14,6.86a2.85,2.85,0,0,1,1.81-.66,1.91,1.91,0,0,1,1.77,2c0,1.59-1.71,2.33-2.93,3.37-.3.26-.48.76-.9.76ZM204.81,25c-.58,0-.86.68-.86,1.34,0,1.18,1,2,1.85,2.77a9.71,9.71,0,0,0,.08-1.32v-.22l0-1.32A1.18,1.18,0,0,0,204.81,25Zm2.11,2.57v.22a9.71,9.71,0,0,0,.08,1.32c.9-.76,1.85-1.59,1.85-2.77,0-.66-.28-1.34-.86-1.34a1.18,1.18,0,0,0-1.06,1.26Z"/><path d="M63,71.64c0,5.24-5.24,8.25-10.28,10.38a.24.24,0,0,1-.18.08.26.26,0,0,1-.26-.26.24.24,0,0,1,.08-.18c4-2.35,8.21-5.28,8.21-9.82,0-2.39-1.26-4.68-3.41-4.68a3.35,3.35,0,0,0-3.07,2.51,1.61,1.61,0,0,1,.68-.16,2,2,0,0,1,2,2,2.05,2.05,0,0,1-2,2.11,2.19,2.19,0,0,1-2.23-2.11,4.75,4.75,0,0,1,4.62-4.86C60.59,66.64,63,68.39,63,71.64Zm1.65-3.27a1,1,0,1,1-1,1A1,1,0,0,1,64.66,68.37Zm0,5a1,1,0,1,1-1,1A1,1,0,0,1,64.66,73.35Z"/><rect class="cls-4" x="249.59" y="23.19" width="0.25" height="17.63"/><rect x="249.58" y="23.19" width="0.25" height="17.63"/><rect class="cls-4" x="146.2" y="4.6" width="0.25" height="28.79"/><rect x="146.2" y="4.6" width="0.25" height="28.79"/><text class="cls-6" transform="translate(5.01 58.35)">P<tspan class="cls-7" x="7.31" y="0">i</tspan><tspan class="cls-8" x="10.72" y="0">a</tspan><tspan class="cls-9" x="16.83" y="0">n</tspan><tspan class="cls-10" x="23.47" y="0">o</tspan></text><path d="M44.43,79.61A9.62,9.62,0,0,0,47,86.78a.36.36,0,0,1,.06.24.33.33,0,0,1-.3.36.45.45,0,0,1-.24-.12C43.89,84.57,43,81,43,77.28c0-5.32,2.15-10.52,2.15-15.54a9.86,9.86,0,0,0-2.57-7.17c-.06-.06-.06-.06-.06-.12s0-.06.06-.12a9.86,9.86,0,0,0,2.57-7.17c0-5-2.15-10.22-2.15-15.54,0-3.77.9-7.29,3.53-10a.45.45,0,0,1,.24-.12.33.33,0,0,1,.3.36.36.36,0,0,1-.06.24,9.62,9.62,0,0,0-2.57,7.17c0,5,2,10,2,15.24,0,3.71-.9,7.23-3.47,9.92,2.57,2.69,3.47,6.22,3.47,9.92C46.47,69.57,44.43,74.65,44.43,79.61Z"/><rect class="cls-11" x="48.51" y="22.06" width="0.3" height="64.76"/><rect x="48.51" y="22.06" width="0.3" height="64.76"/><path class="cls-5" d="M515,36c4.7-4.22,22.92-4.22,27.63,0C538,32.39,519.75,32.39,515,36Z"/><path d="M515,36c4.7-4.22,22.92-4.22,27.63,0-4.7-3.62-22.93-3.62-27.63,0"/><path d="M146.65,33.58a3.67,3.67,0,0,1-2,3,4.53,4.53,0,0,1-2.31.68c-1.1,0-2.15-.56-2.15-1.77a3.67,3.67,0,0,1,2-3,4.53,4.53,0,0,1,2.31-.68C145.59,31.81,146.65,32.36,146.65,33.58Z"/><path d="M255.88,21.13a3.67,3.67,0,0,1-2,3,4.53,4.53,0,0,1-2.31.68c-1.1,0-2.15-.56-2.15-1.77a3.67,3.67,0,0,1,2-3,4.53,4.53,0,0,1,2.31-.68C254.83,19.35,255.88,19.91,255.88,21.13Z"/><path d="M60.3,31.77A5.12,5.12,0,0,1,65.4,37a5.19,5.19,0,0,1-2.13,4.18,4.51,4.51,0,0,1-1.45.72c.06.7.1,1.39.1,2.09,0,.38,0,.78,0,1.16-.14,2.39-1.79,4.54-4.15,4.54a3.9,3.9,0,0,1-3.89-3.93,2.17,2.17,0,0,1,2.23-2.05A2,2,0,0,1,58,45.74a1.91,1.91,0,0,1-1.89,1.89,1.62,1.62,0,0,1-.62-.12,2.8,2.8,0,0,0,2.33,1.3C59.7,48.8,60.91,47,61,45c0-.36,0-.74,0-1.1,0-.62,0-1.22-.08-1.83a10.3,10.3,0,0,1-1.77.16c-3.75,0-6.64-3.43-6.64-7.45,0-3.53,2.61-6.1,4.94-8.79a22.27,22.27,0,0,1-.9-3.79,27,27,0,0,1-.14-3.11,7.19,7.19,0,0,1,3-5.82.39.39,0,0,1,.2-.06.24.24,0,0,1,.2.06,12.93,12.93,0,0,1,2.65,7.13c0,2.85-1.71,5.08-3.59,7.25.42,1.36.78,2.75,1.12,4.13Zm-1,9.61a11.07,11.07,0,0,0,1.63-.12A68.78,68.78,0,0,0,59.66,34a2.49,2.49,0,0,0-2.47,2.37,2.87,2.87,0,0,0,1.61,2.45.42.42,0,0,1,.14.3.46.46,0,0,1-.44.44.58.58,0,0,1-.18,0A4.17,4.17,0,0,1,56,35.83a4,4,0,0,1,3.19-3.93c-.28-1.16-.58-2.33-.92-3.49-2.13,2.41-4.24,4.84-4.24,8A5.26,5.26,0,0,0,59.28,41.37Zm-1.83-20a12.94,12.94,0,0,0,.72,3.87c1.59-1.93,2.91-3.95,2.91-6.46a6.89,6.89,0,0,0-.4-2.57A5.74,5.74,0,0,0,57.45,21.34ZM64,37.78A3.81,3.81,0,0,0,60.53,34c.48,2.31.92,4.6,1.2,7.05A3.54,3.54,0,0,0,64,37.78Z"/><path d="M163.4,33.58a3.67,3.67,0,0,1-2,3,4.53,4.53,0,0,1-2.31.68c-1.1,0-2.15-.56-2.15-1.77a3.67,3.67,0,0,1,2-3,4.53,4.53,0,0,1,2.31-.68C162.34,31.81,163.4,32.36,163.4,33.58Zm3.36-.18a1.12,1.12,0,1,1-1.12,1.12A1.11,1.11,0,0,1,166.76,33.4Z"/><rect class="cls-4" x="162.95" y="5.86" width="0.25" height="27.53"/><rect x="162.95" y="5.86" width="0.25" height="27.53"/><path d="M332.29,23.62a3.67,3.67,0,0,1-2,3,4.53,4.53,0,0,1-2.31.68c-1.1,0-2.15-.56-2.15-1.77a3.67,3.67,0,0,1,2-3,4.53,4.53,0,0,1,2.31-.68C331.23,21.84,332.29,22.4,332.29,23.62Z"/><path d="M312.36,18.64a3.67,3.67,0,0,1-2,3,4.53,4.53,0,0,1-2.31.68c-1.1,0-2.15-.56-2.15-1.77a3.67,3.67,0,0,1,2-3,4.53,4.53,0,0,1,2.31-.68C311.3,16.86,312.36,17.42,312.36,18.64Z"/><rect class="cls-4" x="311.91" y="3.28" width="0.25" height="15.16"/><rect x="311.91" y="3.28" width="0.25" height="15.16"/><rect class="cls-4" x="103.7" y="1.42" width="0.25" height="29.48"/><rect x="103.7" y="1.42" width="0.25" height="29.48"/><rect class="cls-4" x="331.84" y="3.29" width="0.25" height="20.14"/><rect x="331.84" y="3.29" width="0.25" height="20.14"/><path d="M323.45,27.8c-.42,0-.6-.5-.9-.76-1.22-1-2.93-1.77-2.93-3.37a1.91,1.91,0,0,1,1.77-2,2.87,2.87,0,0,1,1.81.68l-.14-6.88a1,1,0,0,1,1.08,0l-.24,11.86A.47.47,0,0,1,323.45,27.8ZM322,22.48c-.58,0-.86.68-.86,1.34,0,1.18,1,2,1.85,2.77a9.71,9.71,0,0,0,.08-1.32v-.22l0-1.32A1.18,1.18,0,0,0,322,22.48Z"/><path d="M352.22,28.6a3.67,3.67,0,0,1-2,3,4.53,4.53,0,0,1-2.31.68c-1.1,0-2.15-.56-2.15-1.77a3.67,3.67,0,0,1,2-3,4.53,4.53,0,0,1,2.31-.68C351.16,26.82,352.22,27.38,352.22,28.6Z"/><rect class="cls-4" x="351.77" y="3.29" width="0.25" height="25.13"/><rect x="351.77" y="3.29" width="0.25" height="25.13"/><rect class="cls-4" x="273.06" y="20.7" width="0.25" height="18.62"/><rect x="273.06" y="20.7" width="0.25" height="18.62"/><path d="M267,22.82c-.42,0-.6-.5-.9-.76-1.22-1-2.93-1.77-2.93-3.37a1.91,1.91,0,0,1,1.77-2,2.85,2.85,0,0,1,1.81.66l-.14-6.86a1,1,0,0,1,1.08,0l-.14,6.86a2.85,2.85,0,0,1,1.81-.66,1.91,1.91,0,0,1,1.77,2c0,1.59-1.71,2.33-2.93,3.37-.3.26-.48.76-.9.76Zm-1.43-5.32c-.58,0-.86.68-.86,1.34,0,1.18,1,2,1.85,2.77a9.71,9.71,0,0,0,.08-1.32v-.22l0-1.32A1.18,1.18,0,0,0,265.54,17.5Zm2.11,2.57v.22a9.71,9.71,0,0,0,.08,1.32c.9-.76,1.85-1.59,1.85-2.77,0-.66-.28-1.34-.86-1.34a1.18,1.18,0,0,0-1.06,1.26Zm11.71-1.43a3.67,3.67,0,0,1-2,3,4.53,4.53,0,0,1-2.31.68c-1.1,0-2.15-.56-2.15-1.77a3.67,3.67,0,0,1,2-3,4.53,4.53,0,0,1,2.31-.68C278.3,16.86,279.36,17.42,279.36,18.64Zm3.36-.18a1.12,1.12,0,1,1-1.12,1.12A1.11,1.11,0,0,1,282.71,18.46Z"/><line class="cls-12" x1="6.29" y1="146.6" x2="544.37" y2="146.6"/><line class="cls-12" x1="6.29" y1="141.62" x2="544.37" y2="141.62"/><line class="cls-12" x1="6.29" y1="136.63" x2="544.37" y2="136.63"/><line class="cls-12" x1="6.29" y1="131.65" x2="544.37" y2="131.65"/><line class="cls-12" x1="6.29" y1="126.67" x2="544.37" y2="126.67"/><line class="cls-12" x1="6.29" y1="191.43" x2="544.37" y2="191.43"/><line class="cls-12" x1="6.29" y1="186.45" x2="544.37" y2="186.45"/><line class="cls-12" x1="6.29" y1="181.47" x2="544.37" y2="181.47"/><line class="cls-12" x1="6.29" y1="176.49" x2="544.37" y2="176.49"/><line class="cls-12" x1="6.29" y1="171.51" x2="544.37" y2="171.51"/><line class="cls-13" x1="543.13" y1="171.51" x2="543.13" y2="146.85"/><line class="cls-14" x1="539.66" y1="171.51" x2="539.66" y2="146.85"/><line class="cls-13" x1="543.13" y1="146.85" x2="543.13" y2="126.67"/><line class="cls-14" x1="539.66" y1="146.85" x2="539.66" y2="126.67"/><line class="cls-13" x1="543.13" y1="191.43" x2="543.13" y2="171.25"/><line class="cls-14" x1="539.66" y1="191.43" x2="539.66" y2="171.25"/><rect class="cls-4" x="300.82" y="142.74" width="0.25" height="19.55"/><rect x="300.82" y="142.74" width="0.25" height="19.55"/><path d="M307.12,140.68a3.67,3.67,0,0,1-2,3,4.53,4.53,0,0,1-2.31.68c-1.1,0-2.15-.56-2.15-1.77a3.67,3.67,0,0,1,2-3,4.53,4.53,0,0,1,2.31-.68C306.07,138.9,307.12,139.46,307.12,140.68Z"/><path d="M277.75,132.51a1,1,0,0,1,1.08,0l-.14,6.88a2.87,2.87,0,0,1,1.81-.68,1.91,1.91,0,0,1,1.77,2c0,1.59-1.71,2.33-2.93,3.37-.3.26-.48.76-.9.76a.47.47,0,0,1-.46-.5Zm1.06,9.61v.22a9.71,9.71,0,0,0,.08,1.32c.9-.76,1.85-1.59,1.85-2.77,0-.66-.28-1.34-.86-1.34a1.18,1.18,0,0,0-1.06,1.26Z"/><rect class="cls-4" x="290.07" y="107.89" width="0.25" height="32.6"/><rect x="290.07" y="107.89" width="0.25" height="32.6"/><path d="M290.52,140.68a3.67,3.67,0,0,1-2,3,4.53,4.53,0,0,1-2.31.68c-1.1,0-2.15-.56-2.15-1.77a3.67,3.67,0,0,1,2-3,4.53,4.53,0,0,1,2.31-.68C289.46,138.9,290.52,139.46,290.52,140.68Z"/><path d="M325,135.7a3.67,3.67,0,0,1-2,3,4.53,4.53,0,0,1-2.31.68c-1.1,0-2.15-.56-2.15-1.77a3.67,3.67,0,0,1,2-3,4.53,4.53,0,0,1,2.31-.68C323.92,133.92,325,134.48,325,135.7Z"/><rect class="cls-4" x="318.68" y="137.76" width="0.25" height="24.53"/><rect x="318.68" y="137.76" width="0.25" height="24.53"/><path d="M341.58,135.7a3.67,3.67,0,0,1-2,3,4.53,4.53,0,0,1-2.31.68c-1.1,0-2.15-.56-2.15-1.77a3.67,3.67,0,0,1,2-3,4.53,4.53,0,0,1,2.31-.68C340.52,133.92,341.58,134.48,341.58,135.7Z"/><rect class="cls-4" x="335.28" y="137.76" width="0.25" height="24.53"/><rect x="335.28" y="137.76" width="0.25" height="24.53"/><path d="M155.53,134.9c-.42,0-.6-.5-.9-.76-1.22-1-2.93-1.77-2.93-3.37a1.91,1.91,0,0,1,1.77-2,2.85,2.85,0,0,1,1.81.66l-.14-6.86a1,1,0,0,1,1.08,0l-.14,6.86a2.85,2.85,0,0,1,1.81-.66,1.91,1.91,0,0,1,1.77,2c0,1.59-1.71,2.33-2.93,3.37-.3.26-.48.76-.9.76Zm-1.43-5.32c-.58,0-.86.68-.86,1.34,0,1.18,1,2,1.85,2.77a9.71,9.71,0,0,0,.08-1.32v-.22l0-1.32A1.18,1.18,0,0,0,154.09,129.58Zm2.11,2.57v.22a9.71,9.71,0,0,0,.08,1.32c.9-.76,1.85-1.59,1.85-2.77,0-.66-.28-1.34-.86-1.34a1.18,1.18,0,0,0-1.06,1.26Z"/><rect class="cls-4" x="220.89" y="107.89" width="0.25" height="37.58"/><rect x="220.89" y="107.89" width="0.25" height="37.58"/><path d="M210,139a1,1,0,0,1,.48.14l0,3.65,2.11-.4h.06a.34.34,0,0,1,.36.34l.14,11.36a1,1,0,0,1-1,0l.06-3.65-2.11.4H210a.34.34,0,0,1-.36-.34l-.16-11.36A1.18,1.18,0,0,1,210,139Zm.42,5.72-.06,4.13,1.83-.34.06-4.13Zm10.9,1a3.67,3.67,0,0,1-2,3,4.53,4.53,0,0,1-2.31.68c-1.1,0-2.15-.56-2.15-1.77a3.67,3.67,0,0,1,2-3,4.53,4.53,0,0,1,2.31-.68C220.28,143.89,221.34,144.44,221.34,145.66Z"/><rect class="cls-4" x="194.18" y="107.89" width="0.25" height="22.63"/><rect x="194.18" y="107.89" width="0.25" height="22.63"/><path d="M194.63,130.72a3.67,3.67,0,0,1-2,3,4.53,4.53,0,0,1-2.31.68c-1.1,0-2.15-.56-2.15-1.77a3.67,3.67,0,0,1,2-3,4.53,4.53,0,0,1,2.31-.68C193.57,128.94,194.63,129.5,194.63,130.72Z"/><polygon class="cls-4" points="40.98 118.2 40.98 120.2 167.71 113.67 167.71 111.68 40.98 118.2"/><polygon points="40.98 118.2 40.98 120.2 167.71 113.67 167.71 111.68 40.98 118.2"/><polygon class="cls-4" points="40.98 122.24 40.98 124.23 167.71 117.7 167.71 115.71 40.98 122.24"/><polygon points="40.98 122.24 40.98 124.23 167.71 117.7 167.71 115.71 40.98 122.24"/><polygon class="cls-4" points="120.8 122.18 120.8 124.17 144.38 122.94 144.38 120.94 120.8 122.18"/><polygon points="120.8 122.18 120.8 124.17 144.38 122.94 144.38 120.94 120.8 122.18"/><polygon class="cls-4" points="40.98 126.27 40.98 128.27 104.44 124.99 104.44 123 40.98 126.27"/><polygon points="40.98 126.27 40.98 128.27 104.44 124.99 104.44 123 40.98 126.27"/><path d="M241.28,128.23a3.67,3.67,0,0,1-2,3,4.53,4.53,0,0,1-2.31.68c-1.1,0-2.15-.56-2.15-1.77a3.67,3.67,0,0,1,2-3,4.53,4.53,0,0,1,2.31-.68C240.23,126.45,241.28,127,241.28,128.23Z"/><rect class="cls-4" x="240.83" y="107.89" width="0.25" height="20.14"/><rect x="240.83" y="107.89" width="0.25" height="20.14"/><path d="M228.52,120.05a1,1,0,0,1,1.08,0l-.14,6.88a2.87,2.87,0,0,1,1.81-.68,1.91,1.91,0,0,1,1.77,2c0,1.59-1.71,2.33-2.93,3.37-.3.26-.48.76-.9.76a.47.47,0,0,1-.46-.5Zm1.06,9.61v.22a9.71,9.71,0,0,0,.08,1.32c.9-.76,1.85-1.59,1.85-2.77,0-.66-.28-1.34-.86-1.34a1.18,1.18,0,0,0-1.06,1.26Zm28.31-1.43a3.67,3.67,0,0,1-2,3,4.53,4.53,0,0,1-2.31.68c-1.1,0-2.15-.56-2.15-1.77a3.67,3.67,0,0,1,2-3,4.53,4.53,0,0,1,2.31-.68C256.83,126.45,257.89,127,257.89,128.23Zm3.36-.18a1.12,1.12,0,1,1-1.12,1.12A1.11,1.11,0,0,1,261.25,128Z"/><rect class="cls-4" x="257.44" y="107.89" width="0.25" height="20.14"/><rect x="257.44" y="107.89" width="0.25" height="20.14"/><path class="cls-5" d="M461.58,151.58a5.28,5.28,0,0,0,8.12,0A6.39,6.39,0,0,1,461.58,151.58Z"/><path d="M461.58,151.58a5.28,5.28,0,0,0,8.12,0,6.39,6.39,0,0,1-8.12,0"/><path d="M440.64,148.15a3.67,3.67,0,0,1-2,3,4.53,4.53,0,0,1-2.31.68c-1.1,0-2.15-.56-2.15-1.77a3.67,3.67,0,0,1,2-3,4.53,4.53,0,0,1,2.31-.68C439.58,146.38,440.64,146.93,440.64,148.15Z"/><rect class="cls-4" x="440.19" y="127.82" width="0.25" height="20.14"/><rect x="440.19" y="127.82" width="0.25" height="20.14"/><path d="M431.8,152.34c-.42,0-.6-.5-.9-.76-1.22-1-2.93-1.77-2.93-3.37a1.91,1.91,0,0,1,1.77-2,2.87,2.87,0,0,1,1.81.68l-.14-6.88a1,1,0,0,1,1.08,0l-.24,11.86A.47.47,0,0,1,431.8,152.34ZM430.36,147c-.58,0-.86.68-.86,1.34,0,1.18,1,2,1.85,2.77a9.71,9.71,0,0,0,.08-1.32v-.22l0-1.32A1.18,1.18,0,0,0,430.36,147Zm30.22,1.14a3.67,3.67,0,0,1-2,3,4.53,4.53,0,0,1-2.31.68c-1.1,0-2.15-.56-2.15-1.77a3.67,3.67,0,0,1,2-3,4.53,4.53,0,0,1,2.31-.68C459.53,146.38,460.58,146.93,460.58,148.15Z"/><rect class="cls-4" x="460.13" y="127.82" width="0.25" height="20.14"/><rect x="460.13" y="127.82" width="0.25" height="20.14"/><path d="M402.34,144.86c-.42,0-.6-.5-.9-.76-1.22-1-2.93-1.77-2.93-3.37a1.91,1.91,0,0,1,1.77-2,2.85,2.85,0,0,1,1.81.66l-.14-6.86a1,1,0,0,1,1.08,0l-.14,6.86a2.85,2.85,0,0,1,1.81-.66,1.91,1.91,0,0,1,1.77,2c0,1.59-1.71,2.33-2.93,3.37-.3.26-.48.76-.9.76Zm-1.43-5.32c-.58,0-.86.68-.86,1.34,0,1.18,1,2,1.85,2.77a9.71,9.71,0,0,0,.08-1.32v-.22l0-1.32A1.18,1.18,0,0,0,400.91,139.54Zm2.11,2.57v.22a9.71,9.71,0,0,0,.08,1.32c.9-.76,1.85-1.59,1.85-2.77,0-.66-.28-1.34-.86-1.34A1.18,1.18,0,0,0,403,140.8Z"/><rect class="cls-4" x="440.19" y="126.62" width="36.8" height="1.99"/><rect x="440.19" y="126.62" width="36.8" height="1.99"/><rect class="cls-4" x="440.19" y="130.66" width="36.8" height="1.99"/><rect x="440.19" y="130.66" width="36.8" height="1.99"/><rect class="cls-4" x="440.19" y="134.69" width="36.8" height="1.99"/><rect x="440.19" y="134.69" width="36.8" height="1.99"/><path class="cls-5" d="M355.93,122.94c3.2-3.45,11.41-3.45,14.61,0C367.35,120.09,359.13,120.09,355.93,122.94Z"/><path d="M355.93,122.94c3.2-3.45,11.41-3.45,14.61,0-3.2-2.85-11.41-2.85-14.61,0"/><path class="cls-5" d="M326,135.39a5.28,5.28,0,0,1,8.12,0A6.39,6.39,0,0,0,326,135.39Z"/><path d="M326,135.39a5.28,5.28,0,0,1,8.12,0,6.39,6.39,0,0,0-8.12,0"/><rect class="cls-4" x="368.49" y="153.42" width="16.85" height="1.99"/><rect x="368.49" y="153.42" width="16.85" height="1.99"/><rect class="cls-4" x="300.82" y="153.42" width="51.31" height="1.99"/><rect x="300.82" y="153.42" width="51.31" height="1.99"/><rect class="cls-4" x="300.82" y="157.46" width="107.85" height="1.99"/><rect x="300.82" y="157.46" width="107.85" height="1.99"/><rect class="cls-4" x="300.82" y="161.49" width="107.85" height="1.99"/><rect x="300.82" y="161.49" width="107.85" height="1.99"/><path class="cls-5" d="M291.51,143a4.75,4.75,0,0,0,7.44,0A5.81,5.81,0,0,1,291.51,143Z"/><path d="M291.51,143a4.75,4.75,0,0,0,7.44,0,5.81,5.81,0,0,1-7.44,0"/><path class="cls-5" d="M239,132.78c3.2,3.45,11.41,3.45,14.61,0C250.44,135.63,242.23,135.63,239,132.78Z"/><path d="M239,132.78c3.2,3.45,11.41,3.45,14.61,0-3.2,2.85-11.41,2.85-14.61,0"/><rect class="cls-4" x="194.18" y="106.7" width="96.14" height="1.99"/><rect x="194.18" y="106.7" width="96.14" height="1.99"/><rect class="cls-4" x="194.18" y="110.73" width="96.14" height="1.99"/><rect x="194.18" y="110.73" width="96.14" height="1.99"/><rect class="cls-4" x="284.91" y="114.77" width="5.4" height="1.99"/><rect x="284.91" y="114.77" width="5.4" height="1.99"/><rect class="cls-4" x="220.89" y="114.77" width="20.19" height="1.99"/><rect x="220.89" y="114.77" width="20.19" height="1.99"/><path class="cls-5" d="M168.91,132.78c3.7,3.75,14.53,3.75,18.23,0C183.43,135.93,172.6,135.93,168.91,132.78Z"/><path d="M168.91,132.78c3.7,3.75,14.53,3.75,18.23,0-3.7,3.16-14.53,3.16-18.23,0"/><path class="cls-5" d="M102.39,142.74c3.2,3.45,11.41,3.45,14.61,0C113.8,145.59,105.59,145.59,102.39,142.74Z"/><path d="M102.39,142.74c3.2,3.45,11.41,3.45,14.61,0-3.2,2.85-11.41,2.85-14.61,0"/><path d="M358.19,125.73a3.67,3.67,0,0,1-2,3,4.53,4.53,0,0,1-2.31.68c-1.1,0-2.15-.56-2.15-1.77a3.67,3.67,0,0,1,2-3A4.53,4.53,0,0,1,356,124C357.13,124,358.19,124.52,358.19,125.73Z"/><rect class="cls-4" x="351.89" y="127.8" width="0.25" height="34.49"/><rect x="351.89" y="127.8" width="0.25" height="34.49"/><path d="M349.34,129.92c-.42,0-.6-.5-.9-.76-1.22-1-2.93-1.77-2.93-3.37a1.91,1.91,0,0,1,1.77-2,2.87,2.87,0,0,1,1.81.68l-.14-6.88a1,1,0,0,1,1.08,0l-.24,11.86A.47.47,0,0,1,349.34,129.92Zm-1.43-5.32c-.58,0-.86.68-.86,1.34,0,1.18,1,2,1.85,2.77a9.71,9.71,0,0,0,.08-1.32v-.22l0-1.32A1.18,1.18,0,0,0,347.91,124.6Zm26.88,1.14a3.67,3.67,0,0,1-2,3,4.53,4.53,0,0,1-2.31.68c-1.1,0-2.15-.56-2.15-1.77a3.67,3.67,0,0,1,2-3,4.53,4.53,0,0,1,2.31-.68C373.74,124,374.79,124.52,374.79,125.73Z"/><rect class="cls-4" x="368.49" y="127.8" width="0.25" height="34.49"/><rect x="368.49" y="127.8" width="0.25" height="34.49"/><path d="M391.4,145.66a3.67,3.67,0,0,1-2,3,4.53,4.53,0,0,1-2.31.68c-1.1,0-2.15-.56-2.15-1.77a3.67,3.67,0,0,1,2-3,4.53,4.53,0,0,1,2.31-.68C390.34,143.89,391.4,144.44,391.4,145.66Z"/><rect class="cls-4" x="385.1" y="147.72" width="0.25" height="14.57"/><rect x="385.1" y="147.72" width="0.25" height="14.56"/><path d="M382.56,149.84c-.42,0-.6-.5-.9-.76-1.22-1-2.93-1.77-2.93-3.37a1.91,1.91,0,0,1,1.77-2,2.87,2.87,0,0,1,1.81.68l-.14-6.88a1,1,0,0,1,1.08,0L383,149.35A.47.47,0,0,1,382.56,149.84Zm-1.43-5.32c-.58,0-.86.68-.86,1.34,0,1.18,1,2,1.85,2.77a9.71,9.71,0,0,0,.08-1.32v-.22l0-1.32A1.18,1.18,0,0,0,381.12,144.52Z"/><path d="M414.73,140.68a3.67,3.67,0,0,1-2,3,4.53,4.53,0,0,1-2.31.68c-1.1,0-2.15-.56-2.15-1.77a3.67,3.67,0,0,1,2-3,4.53,4.53,0,0,1,2.31-.68C413.67,138.9,414.73,139.46,414.73,140.68Z"/><rect class="cls-4" x="408.43" y="142.74" width="0.25" height="19.55"/><rect x="408.43" y="142.74" width="0.25" height="19.55"/><path d="M490.09,140.08a6.22,6.22,0,0,1-2.15.46A1.65,1.65,0,0,1,486.2,139a1.43,1.43,0,0,1,1.43-1.43,1.19,1.19,0,0,1,1.14.78c.2.56.1,1.18.68,1.18.34,0,1.08-1.08,1.18-1.41l.78-3a6.48,6.48,0,0,1-2.11.46,1.65,1.65,0,0,1-1.73-1.57,1.45,1.45,0,0,1,1.45-1.43,1.16,1.16,0,0,1,1.12.78c.2.56.1,1.18.68,1.18.32,0,1-1,1.12-1.36l.8-3a6.11,6.11,0,0,1-2.05.44,1.65,1.65,0,0,1-1.73-1.57,1.43,1.43,0,0,1,1.43-1.43,1.19,1.19,0,0,1,1.14.78c.2.56.1,1.18.68,1.18.3,0,.92-1,1-1.26a.31.31,0,0,1,.56,0l-4.3,18.33a.84.84,0,0,1-.56.2.79.79,0,0,1-.54-.2Zm17.56-5a6.33,6.33,0,0,1-2.09.44,1.65,1.65,0,0,1-1.73-1.57,1.45,1.45,0,0,1,1.45-1.43,1.16,1.16,0,0,1,1.12.78c.2.56.12,1.18.7,1.18.32,0,1.08-1,1.22-1.26a.31.31,0,0,1,.56,0l-2.45,8.37a.79.79,0,0,1-.54.2.84.84,0,0,1-.56-.2Z"/><rect class="cls-4" x="476.74" y="127.82" width="0.25" height="20.14"/><rect x="476.74" y="127.82" width="0.25" height="20.14"/><path d="M41.43,143.17a3.67,3.67,0,0,1-2,3,4.53,4.53,0,0,1-2.31.68c-1.1,0-2.15-.56-2.15-1.77a3.67,3.67,0,0,1,2-3,4.53,4.53,0,0,1,2.31-.68C40.37,141.4,41.43,142,41.43,143.17Z"/><rect class="cls-4" x="40.98" y="119.38" width="0.25" height="23.6"/><rect x="40.98" y="119.38" width="0.25" height="23.6"/><path d="M1.91,184.22a9.62,9.62,0,0,0,2.57,7.17.36.36,0,0,1,.06.24.33.33,0,0,1-.3.36.45.45,0,0,1-.24-.12c-2.63-2.69-3.53-6.22-3.53-10,0-5.32,2.15-10.52,2.15-15.54a9.86,9.86,0,0,0-2.57-7.17C0,159.11,0,159.11,0,159s0-.06.06-.12a9.86,9.86,0,0,0,2.57-7.17c0-5-2.15-10.22-2.15-15.54,0-3.77.9-7.29,3.53-10a.45.45,0,0,1,.24-.12.33.33,0,0,1,.3.36.36.36,0,0,1-.06.24,9.62,9.62,0,0,0-2.57,7.17c0,5,2,10,2,15.24,0,3.71-.9,7.23-3.47,9.92C3,161.74,3.95,165.27,3.95,169,3.95,174.18,1.91,179.26,1.91,184.22Z"/><rect class="cls-11" x="5.99" y="126.67" width="0.3" height="64.76"/><rect x="5.99" y="126.67" width="0.3" height="64.76"/><path class="cls-5" d="M23.8,140.5a2.27,2.27,0,0,1,4,0A3.11,3.11,0,0,0,23.8,140.5Z"/><path d="M23.8,140.5a2.27,2.27,0,0,1,4,0,3.11,3.11,0,0,0-4,0"/><text class="cls-15" transform="translate(1.28 121.44)">2</text><path d="M17.77,136.37a5.12,5.12,0,0,1,5.1,5.2,5.19,5.19,0,0,1-2.13,4.18,4.51,4.51,0,0,1-1.45.72c.06.7.1,1.39.1,2.09,0,.38,0,.78,0,1.16-.14,2.39-1.79,4.54-4.15,4.54a3.9,3.9,0,0,1-3.89-3.93,2.17,2.17,0,0,1,2.23-2.05,2,2,0,0,1,1.89,2.05,1.91,1.91,0,0,1-1.89,1.89,1.62,1.62,0,0,1-.62-.12,2.8,2.8,0,0,0,2.33,1.3c1.91,0,3.13-1.83,3.25-3.81,0-.36,0-.74,0-1.1,0-.62,0-1.22-.08-1.83a10.3,10.3,0,0,1-1.77.16c-3.75,0-6.64-3.43-6.64-7.45,0-3.53,2.61-6.1,4.94-8.79a22.27,22.27,0,0,1-.9-3.79A27,27,0,0,1,14,123.7a7.19,7.19,0,0,1,3-5.82.39.39,0,0,1,.2-.06.24.24,0,0,1,.2.06A12.93,12.93,0,0,1,20,125c0,2.85-1.71,5.08-3.59,7.25.42,1.36.78,2.75,1.12,4.13Zm-1,9.61a11.07,11.07,0,0,0,1.63-.12,68.77,68.77,0,0,0-1.26-7.25A2.49,2.49,0,0,0,14.67,141a2.87,2.87,0,0,0,1.61,2.45.42.42,0,0,1,.14.3.46.46,0,0,1-.44.44.58.58,0,0,1-.18,0,4.17,4.17,0,0,1-2.33-3.69,4,4,0,0,1,3.19-3.93c-.28-1.16-.58-2.33-.92-3.49-2.13,2.41-4.24,4.84-4.24,8A5.26,5.26,0,0,0,16.76,146Zm-1.83-20a12.94,12.94,0,0,0,.72,3.87c1.59-1.93,2.91-3.95,2.91-6.46a6.89,6.89,0,0,0-.4-2.57A5.74,5.74,0,0,0,14.93,126Zm6.54,16.44A3.81,3.81,0,0,0,18,138.61c.48,2.31.92,4.6,1.2,7.05A3.54,3.54,0,0,0,21.46,142.39Z"/><path d="M20.49,176.25c0,5.24-5.24,8.25-10.28,10.38a.24.24,0,0,1-.18.08.26.26,0,0,1-.26-.26.24.24,0,0,1,.08-.18c4-2.35,8.21-5.28,8.21-9.82,0-2.39-1.26-4.68-3.41-4.68a3.35,3.35,0,0,0-3.07,2.51,1.61,1.61,0,0,1,.68-.16,2,2,0,0,1,2,2,2.05,2.05,0,0,1-2,2.11A2.19,2.19,0,0,1,10,176.11a4.75,4.75,0,0,1,4.62-4.86C18.07,171.24,20.49,173,20.49,176.25ZM22.14,173a1,1,0,1,1-1,1A1,1,0,0,1,22.14,173Zm0,5a1,1,0,1,1-1,1A1,1,0,0,1,22.14,178Z"/><path d="M447.82,140a1,1,0,0,1,1.08,0l-.14,6.88a2.87,2.87,0,0,1,1.81-.68,1.91,1.91,0,0,1,1.77,2c0,1.59-1.71,2.33-2.93,3.37-.3.26-.48.76-.9.76a.47.47,0,0,1-.46-.5Zm1.06,9.61v.22a9.71,9.71,0,0,0,.08,1.32c.9-.76,1.85-1.59,1.85-2.77,0-.66-.28-1.34-.86-1.34a1.18,1.18,0,0,0-1.06,1.26Zm28.31-1.43a3.67,3.67,0,0,1-2,3,4.53,4.53,0,0,1-2.31.68c-1.1,0-2.15-.56-2.15-1.77a3.67,3.67,0,0,1,2-3,4.53,4.53,0,0,1,2.31-.68C476.13,146.38,477.19,146.93,477.19,148.15Z"/><path d="M71.94,137.49a1,1,0,0,1,1.08,0l-.14,6.88a2.87,2.87,0,0,1,1.81-.68,1.91,1.91,0,0,1,1.77,2c0,1.59-1.71,2.33-2.93,3.37-.3.26-.48.76-.9.76a.47.47,0,0,1-.46-.5ZM73,147.09v.22a9.71,9.71,0,0,0,.08,1.32c.9-.76,1.85-1.59,1.85-2.77,0-.66-.28-1.34-.86-1.34A1.18,1.18,0,0,0,73,145.78Z"/><path d="M91.88,130A1,1,0,0,1,93,130l-.14,6.88a2.87,2.87,0,0,1,1.81-.68,1.91,1.91,0,0,1,1.77,2c0,1.59-1.71,2.33-2.93,3.37-.3.26-.48.76-.9.76a.47.47,0,0,1-.46-.5Zm1.06,9.61v.22a9.71,9.71,0,0,0,.08,1.32c.9-.76,1.85-1.59,1.85-2.77,0-.66-.28-1.34-.86-1.34A1.18,1.18,0,0,0,93,138.31Zm11.71-1.43a3.67,3.67,0,0,1-2,3,4.53,4.53,0,0,1-2.31.68c-1.1,0-2.15-.56-2.15-1.77a3.67,3.67,0,0,1,2-3,4.53,4.53,0,0,1,2.31-.68C103.59,136.41,104.64,137,104.64,138.19Zm16.61,0a3.67,3.67,0,0,1-2,3,4.53,4.53,0,0,1-2.31.68c-1.1,0-2.15-.56-2.15-1.77a3.67,3.67,0,0,1,2-3,4.53,4.53,0,0,1,2.31-.68C120.19,136.41,121.25,137,121.25,138.19Z"/><rect class="cls-4" x="120.8" y="115.29" width="0.25" height="22.71"/><rect x="120.8" y="115.29" width="0.25" height="22.71"/><rect class="cls-4" x="104.19" y="116.14" width="0.25" height="21.86"/><rect x="104.19" y="116.14" width="0.25" height="21.86"/><path d="M144.58,135.7a3.67,3.67,0,0,1-2,3,4.53,4.53,0,0,1-2.31.68c-1.1,0-2.15-.56-2.15-1.77a3.67,3.67,0,0,1,2-3,4.53,4.53,0,0,1,2.31-.68C143.52,133.92,144.58,134.48,144.58,135.7Z"/><rect class="cls-4" x="144.13" y="114.09" width="0.25" height="21.42"/><rect x="144.13" y="114.09" width="0.25" height="21.42"/><path d="M132.2,139.88c-.42,0-.6-.5-.9-.76-1.22-1-2.93-1.77-2.93-3.37a1.91,1.91,0,0,1,1.77-2,2.85,2.85,0,0,1,1.81.66l-.14-6.86a1,1,0,0,1,1.08,0l-.14,6.86a2.85,2.85,0,0,1,1.81-.66,1.91,1.91,0,0,1,1.77,2c0,1.59-1.71,2.33-2.93,3.37-.3.26-.48.76-.9.76Zm-1.43-5.32c-.58,0-.86.68-.86,1.34,0,1.18,1,2,1.85,2.77a9.71,9.71,0,0,0,.08-1.32v-.22l0-1.32A1.18,1.18,0,0,0,130.76,134.56Zm2.11,2.57v.22a9.71,9.71,0,0,0,.08,1.32c.9-.76,1.85-1.59,1.85-2.77,0-.66-.28-1.34-.86-1.34a1.18,1.18,0,0,0-1.06,1.26Z"/><path d="M167.91,130.72a3.67,3.67,0,0,1-2,3,4.53,4.53,0,0,1-2.31.68c-1.1,0-2.15-.56-2.15-1.77a3.67,3.67,0,0,1,2-3,4.53,4.53,0,0,1,2.31-.68C166.85,128.94,167.91,129.5,167.91,130.72Z"/><rect class="cls-4" x="167.46" y="112.89" width="0.25" height="17.64"/><rect x="167.46" y="112.89" width="0.25" height="17.64"/><path d="M32.58,147.35c-.42,0-.6-.5-.9-.76-1.22-1-2.93-1.77-2.93-3.37a1.91,1.91,0,0,1,1.77-2,2.87,2.87,0,0,1,1.81.68L32.21,135a1,1,0,0,1,1.08,0L33,146.86A.47.47,0,0,1,32.58,147.35ZM31.15,142c-.58,0-.86.68-.86,1.34,0,1.18,1,2,1.85,2.77a9.71,9.71,0,0,0,.08-1.32v-.22l0-1.32A1.18,1.18,0,0,0,31.15,142Z"/><rect class="cls-4" x="64.31" y="118.19" width="0.25" height="19.81"/><rect x="64.31" y="118.19" width="0.25" height="19.81"/><path d="M52.37,142.37c-.42,0-.6-.5-.9-.76-1.22-1-2.93-1.77-2.93-3.37a1.91,1.91,0,0,1,1.77-2,2.85,2.85,0,0,1,1.81.66L52,130a1,1,0,0,1,1.08,0l-.14,6.86a2.85,2.85,0,0,1,1.81-.66,1.91,1.91,0,0,1,1.77,2c0,1.59-1.71,2.33-2.93,3.37-.3.26-.48.76-.9.76Zm-1.43-5.32c-.58,0-.86.68-.86,1.34,0,1.18,1,2,1.85,2.77a9.71,9.71,0,0,0,.08-1.32v-.22l0-1.32A1.18,1.18,0,0,0,50.94,137.05Zm2.11,2.57v.22a9.71,9.71,0,0,0,.08,1.32c.9-.76,1.85-1.59,1.85-2.77,0-.66-.28-1.34-.86-1.34a1.18,1.18,0,0,0-1.06,1.26Zm11.71-1.43a3.67,3.67,0,0,1-2,3,4.53,4.53,0,0,1-2.31.68c-1.1,0-2.15-.56-2.15-1.77a3.67,3.67,0,0,1,2-3,4.53,4.53,0,0,1,2.31-.68C63.7,136.41,64.76,137,64.76,138.19Z"/><path d="M84.7,145.66a3.67,3.67,0,0,1-2,3,4.53,4.53,0,0,1-2.31.68c-1.1,0-2.15-.56-2.15-1.77a3.67,3.67,0,0,1,2-3,4.53,4.53,0,0,1,2.31-.68C83.64,143.89,84.7,144.44,84.7,145.66Z"/><rect class="cls-4" x="84.25" y="117.16" width="0.25" height="28.31"/><rect x="84.25" y="117.16" width="0.25" height="28.31"/></g></g></svg>