<svg xmlns="http://www.w3.org/2000/svg" viewBox="0 0 535.24 84.48"><defs><style>.cls-1,.cls-2,.cls-3,.cls-4,.cls-5,.cls-6{fill:none;stroke:#000;}.cls-1,.cls-4{stroke-linecap:round;}.cls-1,.cls-2,.cls-3,.cls-4{stroke-miterlimit:10;}.cls-1,.cls-6{stroke-width:0.5px;}.cls-2{stroke-width:0.95px;}.cls-3{stroke-width:2.99px;}.cls-4{stroke-width:1px;}.cls-5,.cls-6{stroke-linejoin:round;}.cls-5{stroke-width:0.4px;}.cls-7{font-size:10.96px;font-family:TeXGyreSchola-Regular, TeX Gyre Schola;}.cls-8{letter-spacing:0em;}.cls-9{letter-spacing:0em;}.cls-10{letter-spacing:0em;}.cls-11{letter-spacing:0em;}</style></defs><title>Asset 1</title><g id="Layer_2" data-name="Layer 2"><g id="Layer_1-2" data-name="Layer 1"><line class="cls-1" x1="43.93" y1="34.87" x2="534.99" y2="34.87"/><line class="cls-1" x1="43.93" y1="29.89" x2="534.99" y2="29.89"/><line class="cls-1" x1="43.93" y1="24.91" x2="534.99" y2="24.91"/><line class="cls-1" x1="43.93" y1="19.92" x2="534.99" y2="19.92"/><line class="cls-1" x1="43.93" y1="14.94" x2="534.99" y2="14.94"/><line class="cls-2" x1="362.46" y1="35.12" x2="362.46" y2="14.94"/><line class="cls-2" x1="201.75" y1="64.15" x2="201.75" y2="35.12"/><line class="cls-2" x1="201.75" y1="35.12" x2="201.75" y2="14.94"/><line class="cls-2" x1="201.75" y1="84.08" x2="201.75" y2="63.9"/><line class="cls-3" x1="533.75" y1="64.15" x2="533.75" y2="35.12"/><line class="cls-2" x1="530.29" y1="64.15" x2="530.29" y2="35.12"/><line class="cls-3" x1="533.75" y1="35.12" x2="533.75" y2="14.94"/><line class="cls-2" x1="530.29" y1="35.12" x2="530.29" y2="14.94"/><line class="cls-2" x1="362.46" y1="64.15" x2="362.46" y2="35.12"/><line class="cls-3" x1="533.75" y1="84.08" x2="533.75" y2="63.9"/><line class="cls-2" x1="530.29" y1="84.08" x2="530.29" y2="63.9"/><line class="cls-2" x1="362.46" y1="84.08" x2="362.46" y2="63.9"/><line class="cls-1" x1="43.93" y1="84.08" x2="534.99" y2="84.08"/><line class="cls-1" x1="43.93" y1="79.1" x2="534.99" y2="79.1"/><line class="cls-1" x1="43.93" y1="74.12" x2="534.99" y2="74.12"/><line class="cls-1" x1="43.93" y1="69.13" x2="534.99" y2="69.13"/><line class="cls-1" x1="43.93" y1="64.15" x2="534.99" y2="64.15"/><line class="cls-4" x1="384.37" y1="59.17" x2="398.9" y2="59.17"/><line class="cls-4" x1="337.79" y1="59.17" x2="351.63" y2="59.17"/><line class="cls-4" x1="305.49" y1="59.17" x2="319.66" y2="59.17"/><line class="cls-4" x1="262.41" y1="59.17" x2="277.33" y2="59.17"/><line class="cls-4" x1="230.68" y1="54.19" x2="239.43" y2="54.19"/><line class="cls-4" x1="225.26" y1="59.17" x2="239.43" y2="59.17"/><line class="cls-4" x1="186.45" y1="54.19" x2="195.19" y2="54.19"/><line class="cls-4" x1="181.02" y1="59.17" x2="195.19" y2="59.17"/><line class="cls-4" x1="151.3" y1="59.17" x2="165.84" y2="59.17"/><line class="cls-4" x1="134.6" y1="54.19" x2="143.34" y2="54.19"/><line class="cls-4" x1="134.6" y1="59.17" x2="143.34" y2="59.17"/><line class="cls-4" x1="95.63" y1="59.17" x2="104.38" y2="59.17"/><line class="cls-4" x1="513.23" y1="39.85" x2="521.98" y2="39.85"/><line class="cls-4" x1="472.07" y1="39.85" x2="486.99" y2="39.85"/><line class="cls-4" x1="472.07" y1="44.83" x2="480.82" y2="44.83"/><path d="M226.93,7.33a1,1,0,0,1,.48.14l0,3.65,2.11-.4h.06a.34.34,0,0,1,.36.34L230,22.42a1,1,0,0,1-1,0l.06-3.65-2.11.4h-.06a.34.34,0,0,1-.36-.34l-.16-11.36A1.18,1.18,0,0,1,226.93,7.33Zm.42,5.72-.06,4.13,1.83-.34.06-4.13Z"/><path d="M222.47,14.8a1,1,0,0,1,.48.14l0,3.65,2.11-.4h.06a.34.34,0,0,1,.36.34l.14,11.36a1,1,0,0,1-1,0l.06-3.65-2.11.4h-.06a.34.34,0,0,1-.36-.34L222,14.94A1.18,1.18,0,0,1,222.47,14.8Zm.42,5.72-.06,4.13,1.83-.34.06-4.13Z"/><path d="M228.33,39a.39.39,0,0,1-.38-.38V36.26l-.78.44a.39.39,0,0,1-.2.06.4.4,0,0,1-.4-.4v-1.2a.45.45,0,0,1,.2-.36l1.18-.66V31l-.78.44a.36.36,0,0,1-.2,0,.4.4,0,0,1-.4-.4v-1.2a.41.41,0,0,1,.2-.34l1.18-.68V26.12a.39.39,0,0,1,.38-.38.37.37,0,0,1,.36.38v2.37l.78-.44a.38.38,0,0,1,.2-.06.4.4,0,0,1,.4.4v1.2a.45.45,0,0,1-.2.36l-1.18.66v3.11l.78-.44a.36.36,0,0,1,.2,0,.4.4,0,0,1,.4.4v1.2a.41.41,0,0,1-.2.34l-1.18.68v2.79A.37.37,0,0,1,228.33,39Z"/><rect class="cls-5" x="275.75" y="6.84" width="0.25" height="21.92"/><rect x="275.75" y="6.84" width="0.25" height="21.92"/><path d="M276.2,55.74a3.67,3.67,0,0,1-2,3,4.53,4.53,0,0,1-2.31.68c-1.1,0-2.15-.56-2.15-1.77a3.67,3.67,0,0,1,2-3A4.53,4.53,0,0,1,274,54C275.14,54,276.2,54.53,276.2,55.74Z"/><path d="M270,58.23a3.67,3.67,0,0,1-2,3,4.53,4.53,0,0,1-2.31.68c-1.1,0-2.15-.56-2.15-1.77a3.67,3.67,0,0,1,2-3,4.53,4.53,0,0,1,2.31-.68C269,56.46,270,57,270,58.23Z"/><path d="M282.37,21.48a3.67,3.67,0,0,1-2,3,4.53,4.53,0,0,1-2.31.68c-1.1,0-2.15-.56-2.15-1.77a3.67,3.67,0,0,1,2-3,4.53,4.53,0,0,1,2.31-.68C281.32,19.7,282.37,20.26,282.37,21.48Z"/><path d="M276.2,24a3.67,3.67,0,0,1-2,3,4.53,4.53,0,0,1-2.31.68c-1.1,0-2.15-.56-2.15-1.77a3.67,3.67,0,0,1,2-3A4.53,4.53,0,0,1,274,22.2C275.14,22.2,276.2,22.75,276.2,24Z"/><path d="M276.2,29a3.67,3.67,0,0,1-2,3,4.53,4.53,0,0,1-2.31.68c-1.1,0-2.15-.56-2.15-1.77a3.67,3.67,0,0,1,2-3,4.53,4.53,0,0,1,2.31-.68C275.14,27.18,276.2,27.73,276.2,29Zm0,0a3.67,3.67,0,0,1-2,3,4.53,4.53,0,0,1-2.31.68c-1.1,0-2.15-.56-2.15-1.77a3.67,3.67,0,0,1,2-3,4.53,4.53,0,0,1,2.31-.68C275.14,27.18,276.2,27.73,276.2,29ZM282,29a3.67,3.67,0,0,1-2,3,4.53,4.53,0,0,1-2.31.68c-1.1,0-2.15-.56-2.15-1.77a3.67,3.67,0,0,1,2-3,4.53,4.53,0,0,1,2.31-.68C280.93,27.18,282,27.73,282,29Z"/><path d="M222.15,63.31a.39.39,0,0,1-.38-.38V60.56L221,61a.38.38,0,0,1-.2.06.4.4,0,0,1-.4-.4v-1.2a.45.45,0,0,1,.2-.36l1.18-.66V55.34l-.78.44a.36.36,0,0,1-.2,0,.4.4,0,0,1-.4-.4v-1.2a.41.41,0,0,1,.2-.34l1.18-.68V50.42a.39.39,0,0,1,.38-.38.37.37,0,0,1,.36.38v2.37l.78-.44a.38.38,0,0,1,.2-.06.4.4,0,0,1,.4.4v1.2a.45.45,0,0,1-.2.36l-1.18.66V58l.78-.44a.36.36,0,0,1,.2,0,.4.4,0,0,1,.4.4v1.2a.41.41,0,0,1-.2.34l-1.18.68v2.79A.37.37,0,0,1,222.15,63.31Z"/><path d="M209.2,66.08a.39.39,0,0,1-.38-.38V62.9l-1.49.36v3a.37.37,0,0,1-.36.38.39.39,0,0,1-.38-.38V63.45l-.88.22h-.1a.4.4,0,0,1-.4-.4v-1.2a.38.38,0,0,1,.3-.38l1.08-.28V58.21l-.88.22-.1,0a.4.4,0,0,1-.4-.4v-1.2a.41.41,0,0,1,.3-.4l1.08-.26v-3a.39.39,0,0,1,.38-.38.37.37,0,0,1,.36.38V56l1.49-.38v-3a.38.38,0,1,1,.76,0v2.81l1.49-.36v-3a.39.39,0,0,1,.38-.38.37.37,0,0,1,.36.38v2.81l.88-.22h.1a.4.4,0,0,1,.4.4v1.2a.38.38,0,0,1-.3.38l-1.08.28v3.21l.88-.22.1,0a.4.4,0,0,1,.4.4v1.2a.41.41,0,0,1-.3.4l-1.08.26v3a.37.37,0,0,1-.36.38.39.39,0,0,1-.38-.38V62.32l-1.49.38v3A.39.39,0,0,1,209.2,66.08Zm-1.87-4.84,1.49-.38V57.65l-1.49.38Zm2.25-3.77v3.21l1.49-.38V57.1Z"/><path d="M216.79,73.56a.39.39,0,0,1-.38-.38V70.37l-1.49.36v3a.37.37,0,0,1-.36.38.39.39,0,0,1-.38-.38V70.93l-.88.22h-.1a.4.4,0,0,1-.4-.4v-1.2a.38.38,0,0,1,.3-.38l1.08-.28V65.68l-.88.22-.1,0a.4.4,0,0,1-.4-.4v-1.2a.41.41,0,0,1,.3-.4l1.08-.26v-3a.39.39,0,0,1,.38-.38.37.37,0,0,1,.36.38v2.83l1.49-.38v-3a.38.38,0,0,1,.76,0v2.81l1.49-.36v-3a.39.39,0,0,1,.38-.38.37.37,0,0,1,.36.38v2.81l.88-.22h.1a.4.4,0,0,1,.4.4v1.2a.38.38,0,0,1-.3.38l-1.08.28V67.6l.88-.22.1,0a.4.4,0,0,1,.4.4V69a.41.41,0,0,1-.3.4l-1.08.26v3A.37.37,0,0,1,219,73a.39.39,0,0,1-.38-.38V69.79l-1.49.38v3A.39.39,0,0,1,216.79,73.56Zm-1.87-4.84,1.49-.38V65.13l-1.49.38Zm2.25-3.77v3.21l1.49-.38V64.57Z"/><path d="M149.15,65.77a.39.39,0,0,1-.38-.38V62.5l-1.65.62v3.15a.39.39,0,0,1-.38.38.37.37,0,0,1-.36-.38V63.37l-.64.24a.34.34,0,0,1-.14,0,.4.4,0,0,1-.4-.4V62a.41.41,0,0,1,.26-.38l.92-.32V58.15l-.64.22a.34.34,0,0,1-.14,0,.4.4,0,0,1-.4-.4V56.8a.38.38,0,0,1,.26-.36l.92-.34V53a.37.37,0,0,1,.36-.38.39.39,0,0,1,.38.38v2.89l1.65-.62V52.07a.39.39,0,0,1,.38-.38.37.37,0,0,1,.36.38V55l.64-.24a.34.34,0,0,1,.14,0,.4.4,0,0,1,.4.4v1.2a.41.41,0,0,1-.26.38l-.92.32v3.19l.64-.22a.34.34,0,0,1,.14,0,.4.4,0,0,1,.4.4v1.2a.38.38,0,0,1-.26.36l-.92.34v3.15A.37.37,0,0,1,149.15,65.77Zm-2-4.7,1.65-.6V57.28l-1.65.6Z"/><rect class="cls-5" x="187.77" y="13.58" width="0.25" height="31.05"/><rect x="187.77" y="13.58" width="0.25" height="31.05"/><path d="M194.07,53.25a3.67,3.67,0,0,1-2,3,4.53,4.53,0,0,1-2.31.68c-1.1,0-2.15-.56-2.15-1.77a3.67,3.67,0,0,1,2-3,4.53,4.53,0,0,1,2.31-.68C193,51.48,194.07,52,194.07,53.25Z"/><path d="M187.9,55.74a3.67,3.67,0,0,1-2,3,4.53,4.53,0,0,1-2.31.68c-1.1,0-2.15-.56-2.15-1.77a3.67,3.67,0,0,1,2-3,4.53,4.53,0,0,1,2.31-.68C186.84,54,187.9,54.53,187.9,55.74Z"/><path d="M194.07,63.21a3.67,3.67,0,0,1-2,3,4.53,4.53,0,0,1-2.31.68c-1.1,0-2.15-.56-2.15-1.77a3.67,3.67,0,0,1,2-3,4.53,4.53,0,0,1,2.31-.68C193,61.44,194.07,62,194.07,63.21Z"/><path d="M194.07,11.52a3.67,3.67,0,0,1-2,3,4.53,4.53,0,0,1-2.31.68c-1.1,0-2.15-.56-2.15-1.77a3.67,3.67,0,0,1,2-3,4.53,4.53,0,0,1,2.31-.68C193,9.74,194.07,10.3,194.07,11.52Z"/><path d="M194.07,19a3.67,3.67,0,0,1-2,3,4.53,4.53,0,0,1-2.31.68c-1.1,0-2.15-.56-2.15-1.77a3.67,3.67,0,0,1,2-3,4.53,4.53,0,0,1,2.31-.68C193,17.21,194.07,17.77,194.07,19Z"/><path d="M194.07,28.95a3.67,3.67,0,0,1-2,3,4.53,4.53,0,0,1-2.31.68c-1.1,0-2.15-.56-2.15-1.77a3.67,3.67,0,0,1,2-3,4.53,4.53,0,0,1,2.31-.68C193,27.18,194.07,27.73,194.07,28.95Z"/><rect class="cls-5" x="158.41" y="60.3" width="0.25" height="23.58"/><rect x="158.41" y="60.3" width="0.25" height="23.58"/><path d="M148.57,39a.39.39,0,0,1-.38-.38V36.26l-.78.44a.39.39,0,0,1-.2.06.4.4,0,0,1-.4-.4v-1.2a.45.45,0,0,1,.2-.36l1.18-.66V31l-.78.44a.36.36,0,0,1-.2,0,.4.4,0,0,1-.4-.4v-1.2a.41.41,0,0,1,.2-.34l1.18-.68V26.12a.39.39,0,0,1,.38-.38.37.37,0,0,1,.36.38v2.37l.78-.44a.39.39,0,0,1,.2-.06.4.4,0,0,1,.4.4v1.2a.45.45,0,0,1-.2.36l-1.18.66v3.11l.78-.44a.36.36,0,0,1,.2,0,.4.4,0,0,1,.4.4v1.2a.41.41,0,0,1-.2.34l-1.18.68v2.79A.37.37,0,0,1,148.57,39Z"/><path d="M238.3,53.25a3.67,3.67,0,0,1-2,3,4.53,4.53,0,0,1-2.31.68c-1.1,0-2.15-.56-2.15-1.77a3.67,3.67,0,0,1,2-3,4.53,4.53,0,0,1,2.31-.68C237.24,51.48,238.3,52,238.3,53.25Z"/><path d="M232.13,55.74a3.67,3.67,0,0,1-2,3,4.53,4.53,0,0,1-2.31.68c-1.1,0-2.15-.56-2.15-1.77a3.67,3.67,0,0,1,2-3A4.53,4.53,0,0,1,230,54C231.07,54,232.13,54.53,232.13,55.74Z"/><path d="M238.3,58.23a3.67,3.67,0,0,1-2,3,4.53,4.53,0,0,1-2.31.68c-1.1,0-2.15-.56-2.15-1.77a3.67,3.67,0,0,1,2-3,4.53,4.53,0,0,1,2.31-.68C237.24,56.46,238.3,57,238.3,58.23Z"/><path d="M238.3,65.7a3.67,3.67,0,0,1-2,3,4.53,4.53,0,0,1-2.31.68c-1.1,0-2.15-.56-2.15-1.77a3.67,3.67,0,0,1,2-3,4.53,4.53,0,0,1,2.31-.68C237.24,63.93,238.3,64.49,238.3,65.7Z"/><path d="M238.3,14a3.67,3.67,0,0,1-2,3,4.53,4.53,0,0,1-2.31.68c-1.1,0-2.15-.56-2.15-1.77a3.67,3.67,0,0,1,2-3,4.53,4.53,0,0,1,2.31-.68C237.24,12.23,238.3,12.79,238.3,14Z"/><path d="M238.3,21.48a3.67,3.67,0,0,1-2,3,4.53,4.53,0,0,1-2.31.68c-1.1,0-2.15-.56-2.15-1.77a3.67,3.67,0,0,1,2-3,4.53,4.53,0,0,1,2.31-.68C237.24,19.7,238.3,20.26,238.3,21.48Z"/><path d="M238.3,31.44a3.67,3.67,0,0,1-2,3,4.53,4.53,0,0,1-2.31.68c-1.1,0-2.15-.56-2.15-1.77a3.67,3.67,0,0,1,2-3,4.53,4.53,0,0,1,2.31-.68C237.24,29.67,238.3,30.22,238.3,31.44Z"/><path d="M178.12,63.27a.39.39,0,0,1-.38-.38V60l-1.65.62v3.15a.39.39,0,0,1-.38.38.37.37,0,0,1-.36-.38V60.88l-.64.24a.34.34,0,0,1-.14,0,.4.4,0,0,1-.4-.4v-1.2a.41.41,0,0,1,.26-.38l.92-.32V55.66l-.64.22a.34.34,0,0,1-.14,0,.4.4,0,0,1-.4-.4v-1.2a.38.38,0,0,1,.26-.36l.92-.34V50.46a.37.37,0,0,1,.36-.38.39.39,0,0,1,.38.38v2.89l1.65-.62V49.58a.39.39,0,0,1,.38-.38.37.37,0,0,1,.36.38v2.89l.64-.24a.34.34,0,0,1,.14,0,.4.4,0,0,1,.4.4v1.2a.41.41,0,0,1-.26.38l-.92.32v3.19l.64-.22a.34.34,0,0,1,.14,0,.4.4,0,0,1,.4.4V59a.38.38,0,0,1-.26.36l-.92.34v3.15A.37.37,0,0,1,178.12,63.27Zm-2-4.7,1.65-.6V54.78l-1.65.6Z"/><rect class="cls-5" x="232" y="16.07" width="0.25" height="30.22"/><rect x="232" y="16.07" width="0.25" height="30.22"/><path d="M171.65,70.75a.39.39,0,0,1-.38-.38V67.48l-1.65.62v3.15a.39.39,0,0,1-.38.38.37.37,0,0,1-.36-.38V68.35l-.64.24a.34.34,0,0,1-.14,0,.4.4,0,0,1-.4-.4V67a.41.41,0,0,1,.26-.38l.92-.32V63.13l-.64.22a.34.34,0,0,1-.14,0,.4.4,0,0,1-.4-.4v-1.2a.38.38,0,0,1,.26-.36l.92-.34V57.93a.37.37,0,0,1,.36-.38.39.39,0,0,1,.38.38v2.89l1.65-.62V57.06a.39.39,0,0,1,.38-.38.37.37,0,0,1,.36.38v2.89l.64-.24a.34.34,0,0,1,.14,0,.4.4,0,0,1,.4.4v1.2a.41.41,0,0,1-.26.38L172,62v3.19l.64-.22a.34.34,0,0,1,.14,0,.4.4,0,0,1,.4.4v1.2a.38.38,0,0,1-.26.36l-.92.34v3.15A.37.37,0,0,1,171.65,70.75Zm-2-4.7,1.65-.6V62.26l-1.65.6Z"/><rect class="cls-5" x="187.77" y="55.32" width="0.25" height="26.07"/><rect x="187.77" y="55.32" width="0.25" height="26.07"/><path d="M184.29,19a.39.39,0,0,1-.38-.38V15.78l-1.65.62v3.15a.39.39,0,0,1-.38.38.37.37,0,0,1-.36-.38V16.66l-.64.24a.34.34,0,0,1-.14,0,.4.4,0,0,1-.4-.4v-1.2a.41.41,0,0,1,.26-.38l.92-.32V11.44l-.64.22a.34.34,0,0,1-.14,0,.4.4,0,0,1-.4-.4v-1.2a.38.38,0,0,1,.26-.36l.92-.34V6.23a.37.37,0,0,1,.36-.38.39.39,0,0,1,.38.38V9.12l1.65-.62V5.36a.39.39,0,0,1,.38-.38.37.37,0,0,1,.36.38V8.25l.64-.24a.34.34,0,0,1,.14,0,.4.4,0,0,1,.4.4v1.2a.41.41,0,0,1-.26.38l-.92.32v3.19l.64-.22a.34.34,0,0,1,.14,0,.4.4,0,0,1,.4.4v1.2a.38.38,0,0,1-.26.36l-.92.34v3.15A.37.37,0,0,1,184.29,19Zm-2-4.7,1.65-.6V10.56l-1.65.6Z"/><path d="M177.66,26.52a.39.39,0,0,1-.38-.38V23.25l-1.65.62V27a.39.39,0,0,1-.38.38.37.37,0,0,1-.36-.38V24.13l-.64.24a.34.34,0,0,1-.14,0,.4.4,0,0,1-.4-.4v-1.2a.41.41,0,0,1,.26-.38l.92-.32V18.91l-.64.22a.34.34,0,0,1-.14,0,.4.4,0,0,1-.4-.4v-1.2a.38.38,0,0,1,.26-.36l.92-.34V13.71a.37.37,0,0,1,.36-.38.39.39,0,0,1,.38.38V16.6l1.65-.62V12.83a.39.39,0,0,1,.38-.38.37.37,0,0,1,.36.38v2.89l.64-.24a.34.34,0,0,1,.14,0,.4.4,0,0,1,.4.4v1.2a.41.41,0,0,1-.26.38l-.92.32v3.19l.64-.22a.34.34,0,0,1,.14,0,.4.4,0,0,1,.4.4v1.2a.38.38,0,0,1-.26.36L178,23v3.15A.37.37,0,0,1,177.66,26.52Zm-2-4.7,1.65-.6V18l-1.65.6Z"/><path d="M180.71,22.27a1,1,0,0,1,.48.14l0,3.65,2.11-.4h.06a.34.34,0,0,1,.36.34l.14,11.36a1,1,0,0,1-1,0l.06-3.65-2.11.4h-.06a.34.34,0,0,1-.36-.34l-.16-11.36A1.18,1.18,0,0,1,180.71,22.27Zm.42,5.72-.06,4.13,1.83-.34.06-4.13Z"/><path d="M323.28,26.56a.39.39,0,0,1-.38-.38V23.81l-.78.44a.39.39,0,0,1-.2.06.4.4,0,0,1-.4-.4v-1.2a.45.45,0,0,1,.2-.36l1.18-.66V18.59l-.78.44a.36.36,0,0,1-.2,0,.4.4,0,0,1-.4-.4v-1.2a.41.41,0,0,1,.2-.34l1.18-.68V13.67a.39.39,0,0,1,.38-.38.37.37,0,0,1,.36.38V16l.78-.44a.39.39,0,0,1,.2-.06.4.4,0,0,1,.4.4v1.2a.45.45,0,0,1-.2.36l-1.18.66v3.11l.78-.44a.36.36,0,0,1,.2,0,.4.4,0,0,1,.4.4v1.2a.41.41,0,0,1-.2.34l-1.18.68v2.79A.37.37,0,0,1,323.28,26.56Z"/><path d="M397.77,21.48a3.67,3.67,0,0,1-2,3,4.53,4.53,0,0,1-2.31.68c-1.1,0-2.15-.56-2.15-1.77a3.67,3.67,0,0,1,2-3,4.53,4.53,0,0,1,2.31-.68C396.72,19.7,397.77,20.26,397.77,21.48Z"/><path d="M391.6,31.44a3.67,3.67,0,0,1-2,3,4.53,4.53,0,0,1-2.31.68c-1.1,0-2.15-.56-2.15-1.77a3.67,3.67,0,0,1,2-3,4.53,4.53,0,0,1,2.31-.68C390.55,29.67,391.6,30.22,391.6,31.44Zm6.17,0a3.67,3.67,0,0,1-2,3,4.53,4.53,0,0,1-2.31.68c-1.1,0-2.15-.56-2.15-1.77a3.67,3.67,0,0,1,2-3,4.53,4.53,0,0,1,2.31-.68C396.72,29.67,397.77,30.22,397.77,31.44Z"/><path d="M328.06,66.08a.39.39,0,0,1-.38-.38V62.89l-1.49.36v3a.37.37,0,0,1-.36.38.39.39,0,0,1-.38-.38V63.45l-.88.22h-.1a.4.4,0,0,1-.4-.4v-1.2a.38.38,0,0,1,.3-.38l1.08-.28V58.21l-.88.22-.1,0a.4.4,0,0,1-.4-.4v-1.2a.41.41,0,0,1,.3-.4l1.08-.26v-3a.39.39,0,0,1,.38-.38.37.37,0,0,1,.36.38V56l1.49-.38v-3a.38.38,0,0,1,.76,0v2.81l1.49-.36v-3a.39.39,0,0,1,.38-.38.37.37,0,0,1,.36.38v2.81l.88-.22h.1a.4.4,0,0,1,.4.4v1.2a.38.38,0,0,1-.3.38l-1.08.28v3.21l.88-.22.1,0a.4.4,0,0,1,.4.4v1.2a.41.41,0,0,1-.3.4l-1.08.26v3a.37.37,0,0,1-.36.38.39.39,0,0,1-.38-.38V62.32l-1.49.38v3A.39.39,0,0,1,328.06,66.08Zm-1.87-4.84,1.49-.38V57.65l-1.49.38Zm2.25-3.77v3.21l1.49-.38V57.1Zm5-5.92a1,1,0,0,1,.48.14l0,3.65,2.11-.4H336a.34.34,0,0,1,.36.34l.14,11.36a1,1,0,0,1-1,0l.06-3.65-2.11.4h-.06a.34.34,0,0,1-.36-.34l-.16-11.36A1.18,1.18,0,0,1,333.4,51.56Zm.42,5.72-.06,4.13,1.83-.34.06-4.13Z"/><rect class="cls-5" x="344.21" y="60.3" width="0.25" height="16.11"/><rect x="344.21" y="60.3" width="0.25" height="16.11"/><path d="M397.77,14a3.67,3.67,0,0,1-2,3,4.53,4.53,0,0,1-2.31.68c-1.1,0-2.15-.56-2.15-1.77a3.67,3.67,0,0,1,2-3,4.53,4.53,0,0,1,2.31-.68C396.72,12.23,397.77,12.79,397.77,14Z"/><path d="M336.07,34a.39.39,0,0,1-.38-.38V31.28l-.78.44a.39.39,0,0,1-.2.06.4.4,0,0,1-.4-.4v-1.2a.45.45,0,0,1,.2-.36l1.18-.66V26.06l-.78.44a.36.36,0,0,1-.2,0,.4.4,0,0,1-.4-.4v-1.2a.41.41,0,0,1,.2-.34l1.18-.68V21.14a.39.39,0,0,1,.38-.38.37.37,0,0,1,.36.38v2.37l.78-.44a.39.39,0,0,1,.2-.06.4.4,0,0,1,.4.4v1.2a.45.45,0,0,1-.2.36l-1.18.66v3.11l.78-.44a.36.36,0,0,1,.2,0,.4.4,0,0,1,.4.4v1.2a.41.41,0,0,1-.2.34l-1.18.68v2.79A.37.37,0,0,1,336.07,34Zm3.09-14.25a1,1,0,0,1,.48.14l0,3.65,2.11-.4h.06a.34.34,0,0,1,.36.34l.14,11.36a1,1,0,0,1-1,0l.06-3.65-2.11.4h-.06a.34.34,0,0,1-.36-.34l-.16-11.36A1.18,1.18,0,0,1,339.16,19.78Zm.42,5.72-.06,4.13,1.83-.34.06-4.13Z"/><path d="M327.4,39a.39.39,0,0,1-.38-.38V35.71l-1.65.62v3.15a.39.39,0,0,1-.38.38.37.37,0,0,1-.36-.38V36.58l-.64.24a.34.34,0,0,1-.14,0,.4.4,0,0,1-.4-.4v-1.2a.41.41,0,0,1,.26-.38l.92-.32V31.36l-.64.22a.34.34,0,0,1-.14,0,.4.4,0,0,1-.4-.4V30a.38.38,0,0,1,.26-.36l.92-.34V26.16a.37.37,0,0,1,.36-.38.39.39,0,0,1,.38.38V29l1.65-.62V25.28a.39.39,0,0,1,.38-.38.37.37,0,0,1,.36.38v2.89l.64-.24a.34.34,0,0,1,.14,0,.4.4,0,0,1,.4.4v1.2a.41.41,0,0,1-.26.38l-.92.32v3.19l.64-.22a.34.34,0,0,1,.14,0,.4.4,0,0,1,.4.4v1.2a.38.38,0,0,1-.26.36l-.92.34V38.6A.37.37,0,0,1,327.4,39Zm-2-4.7,1.65-.6V30.48l-1.65.6Zm4.92-9.51a1,1,0,0,1,.48.14l0,3.65,2.11-.4h.06a.34.34,0,0,1,.36.34l.14,11.36a1,1,0,0,1-1,0l.06-3.65-2.11.4h-.06a.34.34,0,0,1-.36-.34l-.16-11.36A1.18,1.18,0,0,1,330.29,24.77Zm.42,5.72-.06,4.13,1.83-.34.06-4.13Z"/><rect class="cls-5" x="350.06" y="5.18" width="0.25" height="26.07"/><rect x="350.06" y="5.18" width="0.25" height="26.07"/><rect class="cls-5" x="391.48" y="57.81" width="0.25" height="23.58"/><rect x="391.48" y="57.81" width="0.25" height="23.58"/><path d="M381.87,21.86a.39.39,0,0,1-.38-.38V18.67L380,19v3a.37.37,0,0,1-.36.38.39.39,0,0,1-.38-.38V19.23l-.88.22h-.1a.4.4,0,0,1-.4-.4v-1.2a.38.38,0,0,1,.3-.38l1.08-.28V14l-.88.22-.1,0a.4.4,0,0,1-.4-.4v-1.2a.41.41,0,0,1,.3-.4l1.08-.26V9a.39.39,0,0,1,.38-.38A.37.37,0,0,1,380,9v2.83l1.49-.38v-3a.38.38,0,0,1,.76,0v2.81l1.49-.36v-3a.39.39,0,0,1,.38-.38.37.37,0,0,1,.36.38v2.81l.88-.22h.1a.4.4,0,0,1,.4.4V12a.38.38,0,0,1-.3.38l-1.08.28V15.9l.88-.22.1,0a.4.4,0,0,1,.4.4v1.2a.41.41,0,0,1-.3.4l-1.08.26v3a.37.37,0,0,1-.36.38.39.39,0,0,1-.38-.38V18.09l-1.49.38v3A.39.39,0,0,1,381.87,21.86ZM380,17l1.49-.38V13.43l-1.49.38Zm2.25-3.77v3.21l1.49-.38V12.87Z"/><path d="M369.91,29.33a.39.39,0,0,1-.38-.38V26.14L368,26.5v3a.37.37,0,0,1-.36.38.39.39,0,0,1-.38-.38V26.7l-.88.22h-.1a.4.4,0,0,1-.4-.4v-1.2a.38.38,0,0,1,.3-.38l1.08-.28V21.46l-.88.22-.1,0a.4.4,0,0,1-.4-.4V20.1a.41.41,0,0,1,.3-.4l1.08-.26v-3a.39.39,0,0,1,.38-.38.37.37,0,0,1,.36.38v2.83l1.49-.38v-3a.38.38,0,1,1,.76,0v2.81l1.49-.36v-3a.39.39,0,0,1,.38-.38.37.37,0,0,1,.36.38v2.81l.88-.22h.1a.4.4,0,0,1,.4.4v1.2a.38.38,0,0,1-.3.38l-1.08.28v3.21l.88-.22.1,0a.4.4,0,0,1,.4.4v1.2a.41.41,0,0,1-.3.4l-1.08.26v3a.37.37,0,0,1-.36.38.39.39,0,0,1-.38-.38V25.56l-1.49.38v3A.39.39,0,0,1,369.91,29.33ZM368,24.49l1.49-.38V20.9l-1.49.38Zm2.25-3.77v3.21l1.49-.38V20.34Z"/><path d="M375.15,39a.39.39,0,0,1-.38-.38V36.26l-.78.44a.39.39,0,0,1-.2.06.4.4,0,0,1-.4-.4v-1.2a.45.45,0,0,1,.2-.36l1.18-.66V31l-.78.44a.36.36,0,0,1-.2,0,.4.4,0,0,1-.4-.4v-1.2a.41.41,0,0,1,.2-.34l1.18-.68V26.12a.39.39,0,0,1,.38-.38.37.37,0,0,1,.36.38v2.37l.78-.44a.39.39,0,0,1,.2-.06.4.4,0,0,1,.4.4v1.2a.45.45,0,0,1-.2.36l-1.18.66v3.11l.78-.44a.36.36,0,0,1,.2,0,.4.4,0,0,1,.4.4v1.2a.41.41,0,0,1-.2.34l-1.18.68v2.79A.37.37,0,0,1,375.15,39Zm6.68,0a.39.39,0,0,1-.38-.38V35.71l-1.65.62v3.15a.39.39,0,0,1-.38.38.37.37,0,0,1-.36-.38V36.58l-.64.24a.34.34,0,0,1-.14,0,.4.4,0,0,1-.4-.4v-1.2a.41.41,0,0,1,.26-.38l.92-.32V31.36l-.64.22a.34.34,0,0,1-.14,0,.4.4,0,0,1-.4-.4V30a.38.38,0,0,1,.26-.36l.92-.34V26.16a.37.37,0,0,1,.36-.38.39.39,0,0,1,.38.38V29l1.65-.62V25.28a.39.39,0,0,1,.38-.38.37.37,0,0,1,.36.38v2.89l.64-.24a.34.34,0,0,1,.14,0,.4.4,0,0,1,.4.4v1.2a.41.41,0,0,1-.26.38l-.92.32v3.19l.64-.22a.34.34,0,0,1,.14,0,.4.4,0,0,1,.4.4v1.2a.38.38,0,0,1-.26.36l-.92.34V38.6A.37.37,0,0,1,381.83,39Zm-2-4.7,1.65-.6V30.48l-1.65.6Z"/><path d="M350.5,58.23a3.67,3.67,0,0,1-2,3,4.53,4.53,0,0,1-2.31.68c-1.1,0-2.15-.56-2.15-1.77a3.67,3.67,0,0,1,2-3,4.53,4.53,0,0,1,2.31-.68C349.45,56.46,350.5,57,350.5,58.23Z"/><rect class="cls-5" x="391.48" y="16.07" width="0.25" height="30.22"/><rect x="391.48" y="16.07" width="0.25" height="30.22"/><path d="M392,55.74a3.67,3.67,0,0,1-2,3,4.53,4.53,0,0,1-2.31.68c-1.1,0-2.15-.56-2.15-1.77a3.67,3.67,0,0,1,2-3,4.53,4.53,0,0,1,2.31-.68C390.93,54,392,54.53,392,55.74Zm5.78,0a3.67,3.67,0,0,1-2,3,4.53,4.53,0,0,1-2.31.68c-1.1,0-2.15-.56-2.15-1.77a3.67,3.67,0,0,1,2-3,4.53,4.53,0,0,1,2.31-.68C396.72,54,397.77,54.53,397.77,55.74Z"/><path d="M397.77,63.21a3.67,3.67,0,0,1-2,3,4.53,4.53,0,0,1-2.31.68c-1.1,0-2.15-.56-2.15-1.77a3.67,3.67,0,0,1,2-3,4.53,4.53,0,0,1,2.31-.68C396.72,61.44,397.77,62,397.77,63.21Z"/><path d="M255.5,65.8a.39.39,0,0,1-.38-.38V63.05l-.78.44a.39.39,0,0,1-.2.06.4.4,0,0,1-.4-.4V62a.45.45,0,0,1,.2-.36l1.18-.66V57.83l-.78.44a.36.36,0,0,1-.2,0,.4.4,0,0,1-.4-.4v-1.2a.41.41,0,0,1,.2-.34l1.18-.68V52.91a.39.39,0,0,1,.38-.38.37.37,0,0,1,.36.38v2.37l.78-.44a.39.39,0,0,1,.2-.06.4.4,0,0,1,.4.4v1.2a.45.45,0,0,1-.2.36l-1.18.66V60.5l.78-.44a.36.36,0,0,1,.2,0,.4.4,0,0,1,.4.4v1.2a.41.41,0,0,1-.2.34l-1.18.68v2.79A.37.37,0,0,1,255.5,65.8Z"/><rect class="cls-5" x="312.24" y="21.05" width="0.25" height="23.58"/><rect x="312.24" y="21.05" width="0.25" height="23.58"/><path d="M318.54,55.74a3.67,3.67,0,0,1-2,3,4.53,4.53,0,0,1-2.31.68c-1.1,0-2.15-.56-2.15-1.77a3.67,3.67,0,0,1,2-3,4.53,4.53,0,0,1,2.31-.68C317.48,54,318.54,54.53,318.54,55.74Z"/><path d="M312.36,58.23a3.67,3.67,0,0,1-2,3,4.53,4.53,0,0,1-2.31.68c-1.1,0-2.15-.56-2.15-1.77a3.67,3.67,0,0,1,2-3,4.53,4.53,0,0,1,2.31-.68C311.31,56.46,312.36,57,312.36,58.23Z"/><path d="M318.54,19a3.67,3.67,0,0,1-2,3,4.53,4.53,0,0,1-2.31.68c-1.1,0-2.15-.56-2.15-1.77a3.67,3.67,0,0,1,2-3,4.53,4.53,0,0,1,2.31-.68C317.48,17.21,318.54,17.77,318.54,19Z"/><path d="M318.54,24a3.67,3.67,0,0,1-2,3,4.53,4.53,0,0,1-2.31.68c-1.1,0-2.15-.56-2.15-1.77a3.67,3.67,0,0,1,2-3,4.53,4.53,0,0,1,2.31-.68C317.48,22.2,318.54,22.75,318.54,24Z"/><path d="M312.36,26.46a3.67,3.67,0,0,1-2,3,4.53,4.53,0,0,1-2.31.68c-1.1,0-2.15-.56-2.15-1.77a3.67,3.67,0,0,1,2-3,4.53,4.53,0,0,1,2.31-.68C311.31,24.69,312.36,25.24,312.36,26.46Z"/><path d="M312.36,29a3.67,3.67,0,0,1-2,3,4.53,4.53,0,0,1-2.31.68c-1.1,0-2.15-.56-2.15-1.77a3.67,3.67,0,0,1,2-3,4.53,4.53,0,0,1,2.31-.68C311.31,27.18,312.36,27.73,312.36,29Zm6.17,0a3.67,3.67,0,0,1-2,3,4.53,4.53,0,0,1-2.31.68c-1.1,0-2.15-.56-2.15-1.77a3.67,3.67,0,0,1,2-3,4.53,4.53,0,0,1,2.31-.68C317.48,27.18,318.54,27.73,318.54,29Z"/><path d="M258.68,49.07a1,1,0,0,1,.48.14l0,3.65,2.11-.4h.06a.34.34,0,0,1,.36.34l.14,11.36a1,1,0,0,1-1,0l.06-3.65-2.11.4h-.06a.34.34,0,0,1-.36-.34l-.16-11.36A1.18,1.18,0,0,1,258.68,49.07Zm.42,5.72L259,58.91l1.83-.34.06-4.13Z"/><rect class="cls-5" x="269.9" y="57.81" width="0.25" height="18.6"/><rect x="269.9" y="57.81" width="0.25" height="18.6"/><path d="M245.27,29.33a.39.39,0,0,1-.38-.38V26.14l-1.49.36v3a.37.37,0,0,1-.36.38.39.39,0,0,1-.38-.38V26.7l-.88.22h-.1a.4.4,0,0,1-.4-.4v-1.2a.38.38,0,0,1,.3-.38l1.08-.28V21.46l-.88.22-.1,0a.4.4,0,0,1-.4-.4V20.1a.41.41,0,0,1,.3-.4l1.08-.26v-3a.39.39,0,0,1,.38-.38.37.37,0,0,1,.36.38v2.83l1.49-.38v-3a.38.38,0,1,1,.76,0v2.81l1.49-.36v-3a.39.39,0,0,1,.38-.38.37.37,0,0,1,.36.38v2.81l.88-.22h.1a.4.4,0,0,1,.4.4v1.2a.38.38,0,0,1-.3.38l-1.08.28v3.21l.88-.22.1,0a.4.4,0,0,1,.4.4v1.2a.41.41,0,0,1-.3.4l-1.08.26v3a.37.37,0,0,1-.36.38.39.39,0,0,1-.38-.38V25.56l-1.49.38v3A.39.39,0,0,1,245.27,29.33Zm-1.87-4.84,1.49-.38V20.9l-1.49.38Zm2.25-3.77v3.21l1.49-.38V20.34Z"/><path d="M253,36.48a.39.39,0,0,1-.38-.38V33.21l-1.65.62V37a.39.39,0,0,1-.38.38.37.37,0,0,1-.36-.38V34.09l-.64.24a.34.34,0,0,1-.14,0,.4.4,0,0,1-.4-.4v-1.2a.41.41,0,0,1,.26-.38l.92-.32V28.87l-.64.22a.34.34,0,0,1-.14,0,.4.4,0,0,1-.4-.4v-1.2a.38.38,0,0,1,.26-.36l.92-.34V23.67a.37.37,0,0,1,.36-.38.39.39,0,0,1,.38.38v2.89l1.65-.62V22.79a.39.39,0,0,1,.38-.38.37.37,0,0,1,.36.38v2.89l.64-.24a.34.34,0,0,1,.14,0,.4.4,0,0,1,.4.4V27a.41.41,0,0,1-.26.38l-.92.32V30.9l.64-.22a.34.34,0,0,1,.14,0,.4.4,0,0,1,.4.4v1.2a.38.38,0,0,1-.26.36l-.92.34V36.1A.37.37,0,0,1,253,36.48Zm-2-4.7,1.65-.6V28l-1.65.6Zm8.55,5a.39.39,0,0,1-.38-.38V33.61l-1.49.36v3a.37.37,0,0,1-.36.38.39.39,0,0,1-.38-.38V34.17l-.88.22H256a.4.4,0,0,1-.4-.4V32.8a.38.38,0,0,1,.3-.38l1.08-.28V28.93l-.88.22-.1,0a.4.4,0,0,1-.4-.4v-1.2a.41.41,0,0,1,.3-.4l1.08-.26v-3a.39.39,0,0,1,.38-.38.37.37,0,0,1,.36.38v2.83l1.49-.38v-3a.38.38,0,0,1,.76,0v2.81l1.49-.36v-3a.39.39,0,0,1,.38-.38.37.37,0,0,1,.36.38V25.6l.88-.22h.1a.4.4,0,0,1,.4.4V27a.38.38,0,0,1-.3.38l-1.08.28v3.21l.88-.22.1,0a.4.4,0,0,1,.4.4v1.2a.41.41,0,0,1-.3.4l-1.08.26v3a.37.37,0,0,1-.36.38.39.39,0,0,1-.38-.38V33l-1.49.38v3A.39.39,0,0,1,259.54,36.8ZM257.67,32l1.49-.38V28.37l-1.49.38Zm2.25-3.77V31.4l1.49-.38V27.81Zm5-5.92a1,1,0,0,1,.48.14l0,3.65,2.11-.4h.06a.34.34,0,0,1,.36.34L268,37.36a1,1,0,0,1-1,0l.06-3.65-2.11.4h-.06a.34.34,0,0,1-.36-.34l-.16-11.36A1.18,1.18,0,0,1,264.88,22.27ZM265.3,28l-.06,4.13,1.83-.34.06-4.13Z"/><path d="M344.72,58.23a3.67,3.67,0,0,1-2,3,4.53,4.53,0,0,1-2.31.68c-1.1,0-2.15-.56-2.15-1.77a3.67,3.67,0,0,1,2-3,4.53,4.53,0,0,1,2.31-.68C343.66,56.46,344.72,57,344.72,58.23Z"/><path d="M350.5,19a3.67,3.67,0,0,1-2,3,4.53,4.53,0,0,1-2.31.68c-1.1,0-2.15-.56-2.15-1.77a3.67,3.67,0,0,1,2-3,4.53,4.53,0,0,1,2.31-.68C349.45,17.21,350.5,17.77,350.5,19Z"/><path d="M350.5,26.46a3.67,3.67,0,0,1-2,3,4.53,4.53,0,0,1-2.31.68c-1.1,0-2.15-.56-2.15-1.77a3.67,3.67,0,0,1,2-3,4.53,4.53,0,0,1,2.31-.68C349.45,24.69,350.5,25.24,350.5,26.46Zm6.17,0a3.67,3.67,0,0,1-2,3,4.53,4.53,0,0,1-2.31.68c-1.1,0-2.15-.56-2.15-1.77a3.67,3.67,0,0,1,2-3,4.53,4.53,0,0,1,2.31-.68C355.62,24.69,356.68,25.24,356.68,26.46Z"/><path d="M350.5,31.44a3.67,3.67,0,0,1-2,3,4.53,4.53,0,0,1-2.31.68c-1.1,0-2.15-.56-2.15-1.77a3.67,3.67,0,0,1,2-3,4.53,4.53,0,0,1,2.31-.68C349.45,29.67,350.5,30.23,350.5,31.44Zm5.78,0a3.67,3.67,0,0,1-2,3,4.53,4.53,0,0,1-2.31.68c-1.1,0-2.15-.56-2.15-1.77a3.67,3.67,0,0,1,2-3,4.53,4.53,0,0,1,2.31-.68C355.23,29.67,356.29,30.23,356.29,31.44Z"/><path d="M302.59,65.76a.39.39,0,0,1-.38-.38V62.5l-1.65.62v3.15a.39.39,0,0,1-.38.38.37.37,0,0,1-.36-.38V63.37l-.64.24a.34.34,0,0,1-.14,0,.4.4,0,0,1-.4-.4V62a.41.41,0,0,1,.26-.38l.92-.32V58.15l-.64.22a.34.34,0,0,1-.14,0,.4.4,0,0,1-.4-.4V56.8a.38.38,0,0,1,.26-.36l.92-.34V53a.37.37,0,0,1,.36-.38.39.39,0,0,1,.38.38v2.89l1.65-.62V52.07a.39.39,0,0,1,.38-.38.37.37,0,0,1,.36.38V55l.64-.24a.34.34,0,0,1,.14,0,.4.4,0,0,1,.4.4v1.2a.41.41,0,0,1-.26.38l-.92.32v3.19l.64-.22a.34.34,0,0,1,.14,0,.4.4,0,0,1,.4.4v1.2a.38.38,0,0,1-.26.36l-.92.34v3.15A.37.37,0,0,1,302.59,65.76Zm-2-4.7,1.65-.6V57.28l-1.65.6Z"/><rect class="cls-5" x="312.24" y="57.81" width="0.25" height="18.6"/><rect x="312.24" y="57.81" width="0.25" height="18.6"/><path d="M290.1,12.31a1,1,0,0,1,.48.14l0,3.65,2.11-.4h.06a.34.34,0,0,1,.36.34l.14,11.36a1,1,0,0,1-1,0l.06-3.65-2.11.4h-.06a.34.34,0,0,1-.36-.34l-.16-11.36A1.18,1.18,0,0,1,290.1,12.31Zm.42,5.72-.06,4.13,1.83-.34.06-4.13Z"/><path d="M285.72,19.78a1,1,0,0,1,.48.14l0,3.65,2.11-.4h.06a.34.34,0,0,1,.36.34l.14,11.36a1,1,0,0,1-1,0l.06-3.65-2.11.4h-.06a.34.34,0,0,1-.36-.34l-.16-11.36A1.18,1.18,0,0,1,285.72,19.78Zm.42,5.72-.06,4.13,1.83-.34.06-4.13Z"/><path d="M298.16,36.48a.39.39,0,0,1-.38-.38V33.21l-1.65.62V37a.39.39,0,0,1-.38.38.37.37,0,0,1-.36-.38V34.09l-.64.24a.34.34,0,0,1-.14,0,.4.4,0,0,1-.4-.4v-1.2a.41.41,0,0,1,.26-.38l.92-.32V28.87l-.64.22a.34.34,0,0,1-.14,0,.4.4,0,0,1-.4-.4v-1.2a.38.38,0,0,1,.26-.36l.92-.34V23.67a.37.37,0,0,1,.36-.38.39.39,0,0,1,.38.38v2.89l1.65-.62V22.79a.39.39,0,0,1,.38-.38.37.37,0,0,1,.36.38v2.89l.64-.24a.34.34,0,0,1,.14,0,.4.4,0,0,1,.4.4V27a.41.41,0,0,1-.26.38l-.92.32V30.9l.64-.22a.34.34,0,0,1,.14,0,.4.4,0,0,1,.4.4v1.2a.38.38,0,0,1-.26.36l-.92.34V36.1A.37.37,0,0,1,298.16,36.48Zm-2-4.7,1.65-.6V28l-1.65.6ZM301,22.27a1,1,0,0,1,.48.14l0,3.65,2.11-.4h.06A.34.34,0,0,1,304,26l.14,11.36a1,1,0,0,1-1,0l.06-3.65-2.11.4H301a.34.34,0,0,1-.36-.34l-.16-11.36A1.18,1.18,0,0,1,301,22.27Zm.42,5.72-.06,4.13,1.83-.34.06-4.13Z"/><rect class="cls-5" x="440.81" y="0.2" width="0.25" height="28.56"/><rect x="440.81" y="0.2" width="0.25" height="28.56"/><path d="M447.76,24a3.67,3.67,0,0,1-2,3,4.53,4.53,0,0,1-2.31.68c-1.1,0-2.15-.56-2.15-1.77a3.67,3.67,0,0,1,2-3,4.53,4.53,0,0,1,2.31-.68C446.7,22.19,447.76,22.75,447.76,24Z"/><path d="M447.76,31.44a3.67,3.67,0,0,1-2,3,4.53,4.53,0,0,1-2.31.68c-1.1,0-2.15-.56-2.15-1.77a3.67,3.67,0,0,1,2-3,4.53,4.53,0,0,1,2.31-.68C446.7,29.67,447.76,30.22,447.76,31.44Z"/><path d="M441.26,11.52a3.67,3.67,0,0,1-2,3,4.53,4.53,0,0,1-2.31.68c-1.1,0-2.15-.56-2.15-1.77a3.67,3.67,0,0,1,2-3,4.53,4.53,0,0,1,2.31-.68C440.2,9.74,441.26,10.3,441.26,11.52Z"/><path d="M441.26,19a3.67,3.67,0,0,1-2,3,4.53,4.53,0,0,1-2.31.68c-1.1,0-2.15-.56-2.15-1.77a3.67,3.67,0,0,1,2-3,4.53,4.53,0,0,1,2.31-.68C440.2,17.21,441.26,17.77,441.26,19Zm6.17,0a3.67,3.67,0,0,1-2,3,4.53,4.53,0,0,1-2.31.68c-1.1,0-2.15-.56-2.15-1.77a3.67,3.67,0,0,1,2-3,4.53,4.53,0,0,1,2.31-.68C446.38,17.21,447.43,17.77,447.43,19Z"/><path d="M447.43,26.46a3.67,3.67,0,0,1-2,3,4.53,4.53,0,0,1-2.31.68c-1.1,0-2.15-.56-2.15-1.77a3.67,3.67,0,0,1,2-3,4.53,4.53,0,0,1,2.31-.68C446.38,24.69,447.43,25.24,447.43,26.46Z"/><path d="M441.26,28.95a3.67,3.67,0,0,1-2,3,4.53,4.53,0,0,1-2.31.68c-1.1,0-2.15-.56-2.15-1.77a3.67,3.67,0,0,1,2-3,4.53,4.53,0,0,1,2.31-.68C440.2,27.18,441.26,27.73,441.26,28.95Z"/><path d="M382.22,63.27a.39.39,0,0,1-.38-.38V60l-1.65.62v3.15a.39.39,0,0,1-.38.38.37.37,0,0,1-.36-.38V60.88l-.64.24a.34.34,0,0,1-.14,0,.4.4,0,0,1-.4-.4v-1.2a.41.41,0,0,1,.26-.38l.92-.32V55.66l-.64.22a.34.34,0,0,1-.14,0,.4.4,0,0,1-.4-.4v-1.2a.38.38,0,0,1,.26-.36l.92-.34V50.46a.37.37,0,0,1,.36-.38.39.39,0,0,1,.38.38v2.89l1.65-.62V49.58a.39.39,0,0,1,.38-.38.37.37,0,0,1,.36.38v2.89l.64-.24a.34.34,0,0,1,.14,0,.4.4,0,0,1,.4.4v1.2a.41.41,0,0,1-.26.38l-.92.32v3.19l.64-.22a.34.34,0,0,1,.14,0,.4.4,0,0,1,.4.4V59a.38.38,0,0,1-.26.36l-.92.34v3.15A.37.37,0,0,1,382.22,63.27Zm-2-4.7,1.65-.6V54.78l-1.65.6Z"/><path d="M415.6,26.84a.39.39,0,0,1-.38-.38V23.65l-1.49.36v3a.37.37,0,0,1-.36.38A.39.39,0,0,1,413,27V24.21l-.88.22H412a.4.4,0,0,1-.4-.4v-1.2a.38.38,0,0,1,.3-.38l1.08-.28V19l-.88.22-.1,0a.4.4,0,0,1-.4-.4v-1.2a.41.41,0,0,1,.3-.4L413,17v-3a.39.39,0,0,1,.38-.38.37.37,0,0,1,.36.38v2.83l1.49-.38v-3a.38.38,0,0,1,.76,0V16.2l1.49-.36v-3a.39.39,0,0,1,.38-.38.37.37,0,0,1,.36.38v2.81l.88-.22h.1a.4.4,0,0,1,.4.4V17a.38.38,0,0,1-.3.38l-1.08.28v3.21l.88-.22.1,0a.4.4,0,0,1,.4.4v1.2a.41.41,0,0,1-.3.4l-1.08.26v3a.37.37,0,0,1-.36.38.39.39,0,0,1-.38-.38V23.07l-1.49.38v3A.39.39,0,0,1,415.6,26.84ZM413.73,22l1.49-.38V18.41l-1.49.38ZM416,18.23v3.21l1.49-.38V17.85Z"/><rect class="cls-5" x="485.42" y="8.5" width="0.25" height="22.75"/><rect x="485.42" y="8.5" width="0.25" height="22.75"/><path d="M485.87,36.42a3.67,3.67,0,0,1-2,3,4.53,4.53,0,0,1-2.31.68c-1.1,0-2.15-.56-2.15-1.77a3.67,3.67,0,0,1,2-3,4.53,4.53,0,0,1,2.31-.68C484.81,34.65,485.87,35.21,485.87,36.42Z"/><rect class="cls-5" x="158.41" y="16.07" width="0.25" height="31.88"/><rect x="158.41" y="16.07" width="0.25" height="31.88"/><path d="M485.87,41.4a3.67,3.67,0,0,1-2,3,4.53,4.53,0,0,1-2.31.68c-1.1,0-2.15-.56-2.15-1.77a3.67,3.67,0,0,1,2-3,4.53,4.53,0,0,1,2.31-.68C484.81,39.63,485.87,40.19,485.87,41.4Z"/><path d="M479.7,43.89a3.67,3.67,0,0,1-2,3,4.53,4.53,0,0,1-2.31.68c-1.1,0-2.15-.56-2.15-1.77a3.67,3.67,0,0,1,2-3,4.53,4.53,0,0,1,2.31-.68C478.64,42.12,479.7,42.68,479.7,43.89Z"/><path d="M485.87,24a3.67,3.67,0,0,1-2,3,4.53,4.53,0,0,1-2.31.68c-1.1,0-2.15-.56-2.15-1.77a3.67,3.67,0,0,1,2-3,4.53,4.53,0,0,1,2.31-.68C484.81,22.2,485.87,22.75,485.87,24Z"/><path d="M485.87,31.44a3.67,3.67,0,0,1-2,3,4.53,4.53,0,0,1-2.31.68c-1.1,0-2.15-.56-2.15-1.77a3.67,3.67,0,0,1,2-3,4.53,4.53,0,0,1,2.31-.68C484.81,29.67,485.87,30.23,485.87,31.44Z"/><path d="M401.12,24.76a1,1,0,0,1,.48.14l0,3.65,2.11-.4h.06a.34.34,0,0,1,.36.34l.14,11.36a1,1,0,0,1-1,0l.06-3.65-2.11.4h-.06a.34.34,0,0,1-.36-.34L400.6,24.9A1.18,1.18,0,0,1,401.12,24.76Zm.42,5.72-.06,4.13,1.83-.34.06-4.13Z"/><path d="M429,19.37a.39.39,0,0,1-.38-.38V16.18l-1.49.36v3a.37.37,0,0,1-.36.38.39.39,0,0,1-.38-.38V16.74l-.88.22h-.1a.4.4,0,0,1-.4-.4v-1.2a.38.38,0,0,1,.3-.38l1.08-.28V11.5l-.88.22-.1,0a.4.4,0,0,1-.4-.4v-1.2a.41.41,0,0,1,.3-.4l1.08-.26v-3a.39.39,0,0,1,.38-.38.37.37,0,0,1,.36.38V9.3l1.49-.38v-3a.38.38,0,1,1,.76,0V8.73l1.49-.36v-3a.39.39,0,0,1,.38-.38.37.37,0,0,1,.36.38V8.17l.88-.22h.1a.4.4,0,0,1,.4.4v1.2a.38.38,0,0,1-.3.38l-1.08.28v3.21l.88-.22.1,0a.4.4,0,0,1,.4.4v1.2a.41.41,0,0,1-.3.4l-1.08.26v3a.37.37,0,0,1-.36.38.39.39,0,0,1-.38-.38V15.6l-1.49.38v3A.39.39,0,0,1,429,19.37Zm-1.87-4.84,1.49-.38V10.94l-1.49.38Zm2.25-3.77V14l1.49-.38V10.38Z"/><path d="M420.94,12.31a1,1,0,0,1,.48.14l0,3.65,2.11-.4h.06a.34.34,0,0,1,.36.34l.14,11.36a1,1,0,0,1-1,0l.06-3.65-2.11.4h-.06a.34.34,0,0,1-.36-.34l-.16-11.36A1.18,1.18,0,0,1,420.94,12.31Zm.42,5.72-.06,4.13,1.83-.34.06-4.13Z"/><path d="M409.09,34a.39.39,0,0,1-.38-.38V30.72l-1.65.62v3.15a.39.39,0,0,1-.38.38.37.37,0,0,1-.36-.38V31.6l-.64.24a.34.34,0,0,1-.14,0,.4.4,0,0,1-.4-.4v-1.2a.41.41,0,0,1,.26-.38l.92-.32V26.38l-.64.22a.34.34,0,0,1-.14,0,.4.4,0,0,1-.4-.4V25a.38.38,0,0,1,.26-.36l.92-.34V21.18a.37.37,0,0,1,.36-.38.39.39,0,0,1,.38.38v2.89l1.65-.62V20.3a.39.39,0,0,1,.38-.38.37.37,0,0,1,.36.38v2.89l.64-.24a.34.34,0,0,1,.14,0,.4.4,0,0,1,.4.4v1.2a.41.41,0,0,1-.26.38l-.92.32v3.19l.64-.22a.34.34,0,0,1,.14,0,.4.4,0,0,1,.4.4v1.2a.38.38,0,0,1-.26.36l-.92.34v3.15A.37.37,0,0,1,409.09,34Zm-2-4.7,1.65-.6V25.5l-1.65.6Z"/><path d="M426.8,36.52a.39.39,0,0,1-.38-.38V33.77l-.78.44a.38.38,0,0,1-.2.06.4.4,0,0,1-.4-.4v-1.2a.45.45,0,0,1,.2-.36l1.18-.66V28.55l-.78.44a.36.36,0,0,1-.2,0,.4.4,0,0,1-.4-.4v-1.2a.41.41,0,0,1,.2-.34l1.18-.68V23.63a.39.39,0,0,1,.38-.38.37.37,0,0,1,.36.38V26l.78-.44a.38.38,0,0,1,.2-.06.4.4,0,0,1,.4.4v1.2a.45.45,0,0,1-.2.36l-1.18.66v3.11l.78-.44a.36.36,0,0,1,.2,0,.4.4,0,0,1,.4.4v1.2a.41.41,0,0,1-.2.34l-1.18.68v2.79A.37.37,0,0,1,426.8,36.52Z"/><rect class="cls-5" x="447.31" y="8.5" width="0.25" height="22.75"/><rect x="447.31" y="8.5" width="0.25" height="22.75"/><rect class="cls-5" x="232" y="55.32" width="0.25" height="28.56"/><rect x="232" y="55.32" width="0.25" height="28.56"/><path d="M103.25,55.74a3.67,3.67,0,0,1-2,3,4.53,4.53,0,0,1-2.31.68c-1.1,0-2.15-.56-2.15-1.77a3.67,3.67,0,0,1,2-3A4.53,4.53,0,0,1,101.1,54C102.19,54,103.25,54.53,103.25,55.74Z"/><path d="M103.25,63.21a3.67,3.67,0,0,1-2,3,4.53,4.53,0,0,1-2.31.68c-1.1,0-2.15-.56-2.15-1.77a3.67,3.67,0,0,1,2-3,4.53,4.53,0,0,1,2.31-.68C102.19,61.44,103.25,62,103.25,63.21Z"/><path d="M55.42,24.65a5.12,5.12,0,0,1,5.1,5.2A5.19,5.19,0,0,1,58.38,34a4.51,4.51,0,0,1-1.45.72c.06.7.1,1.39.1,2.09,0,.38,0,.78,0,1.16-.14,2.39-1.79,4.54-4.15,4.54A3.9,3.9,0,0,1,49,38.62a2.17,2.17,0,0,1,2.23-2.05,2,2,0,0,1,1.89,2.05,1.91,1.91,0,0,1-1.89,1.89,1.62,1.62,0,0,1-.62-.12,2.8,2.8,0,0,0,2.33,1.3c1.91,0,3.13-1.83,3.25-3.81,0-.36,0-.74,0-1.1,0-.62,0-1.22-.08-1.83a10.3,10.3,0,0,1-1.77.16c-3.75,0-6.64-3.43-6.64-7.45,0-3.53,2.61-6.1,4.94-8.79a22.27,22.27,0,0,1-.9-3.79A27,27,0,0,1,51.61,12a7.19,7.19,0,0,1,3-5.82.38.38,0,0,1,.2-.06.24.24,0,0,1,.2.06,12.93,12.93,0,0,1,2.65,7.13c0,2.85-1.71,5.08-3.59,7.25.42,1.36.78,2.75,1.12,4.13Zm-1,9.61A11.07,11.07,0,0,0,56,34.13a68.77,68.77,0,0,0-1.26-7.25,2.49,2.49,0,0,0-2.47,2.37,2.87,2.87,0,0,0,1.61,2.45.42.42,0,0,1,.14.3.46.46,0,0,1-.44.44.58.58,0,0,1-.18,0,4.17,4.17,0,0,1-2.33-3.69,4,4,0,0,1,3.19-3.93c-.28-1.16-.58-2.33-.92-3.49-2.13,2.41-4.24,4.84-4.24,8A5.26,5.26,0,0,0,54.4,34.25Zm-1.83-20a12.94,12.94,0,0,0,.72,3.87c1.59-1.93,2.91-3.95,2.91-6.46a6.89,6.89,0,0,0-.4-2.57A5.74,5.74,0,0,0,52.57,14.22ZM59.1,30.66a3.81,3.81,0,0,0-3.45-3.79c.48,2.31.92,4.6,1.2,7.05A3.54,3.54,0,0,0,59.1,30.66Z"/><path d="M103.25,24a3.67,3.67,0,0,1-2,3,4.53,4.53,0,0,1-2.31.68c-1.1,0-2.15-.56-2.15-1.77a3.67,3.67,0,0,1,2-3,4.53,4.53,0,0,1,2.31-.68C102.19,22.2,103.25,22.75,103.25,24Z"/><path d="M109.42,26.46a3.67,3.67,0,0,1-2,3,4.53,4.53,0,0,1-2.31.68c-1.1,0-2.15-.56-2.15-1.77a3.67,3.67,0,0,1,2-3,4.53,4.53,0,0,1,2.31-.68C108.37,24.69,109.42,25.24,109.42,26.46Z"/><path d="M103.25,29a3.67,3.67,0,0,1-2,3,4.53,4.53,0,0,1-2.31.68c-1.1,0-2.15-.56-2.15-1.77a3.67,3.67,0,0,1,2-3,4.53,4.53,0,0,1,2.31-.68C102.19,27.18,103.25,27.73,103.25,29Zm6.17,0a3.67,3.67,0,0,1-2,3,4.53,4.53,0,0,1-2.31.68c-1.1,0-2.15-.56-2.15-1.77a3.67,3.67,0,0,1,2-3,4.53,4.53,0,0,1,2.31-.68C108.37,27.18,109.42,27.73,109.42,29Z"/><path d="M103.25,31.44a3.67,3.67,0,0,1-2,3,4.53,4.53,0,0,1-2.31.68c-1.1,0-2.15-.56-2.15-1.77a3.67,3.67,0,0,1,2-3,4.53,4.53,0,0,1,2.31-.68C102.19,29.67,103.25,30.23,103.25,31.44Z"/><path d="M58.13,68.89c0,5.24-5.24,8.25-10.28,10.38a.24.24,0,0,1-.18.08.26.26,0,0,1-.26-.26.24.24,0,0,1,.08-.18c4-2.35,8.21-5.28,8.21-9.82,0-2.39-1.26-4.68-3.41-4.68a3.35,3.35,0,0,0-3.07,2.51,1.61,1.61,0,0,1,.68-.16,2,2,0,0,1,2,2,2.05,2.05,0,0,1-2,2.11,2.19,2.19,0,0,1-2.23-2.11,4.75,4.75,0,0,1,4.62-4.86C55.71,63.89,58.13,65.64,58.13,68.89Zm1.65-3.27a1,1,0,1,1-1,1A1,1,0,0,1,59.78,65.62Zm0,5a1,1,0,1,1-1,1A1,1,0,0,1,59.78,70.61Z"/><rect class="cls-6" x="43.63" y="14.94" width="0.3" height="69.13"/><rect x="43.63" y="14.94" width="0.3" height="69.13"/><path d="M39.43,76.29a10.58,10.58,0,0,0,2.69,7.65c.06.06.12.12.12.18a.39.39,0,0,1-.36.36.45.45,0,0,1-.24-.12c-2.75-2.87-3.71-6.58-3.71-10.52,0-5.68,2.27-11.24,2.27-16.62a10.25,10.25,0,0,0-2.63-7.53.3.3,0,0,1,0-.36,10.25,10.25,0,0,0,2.63-7.53c0-5.38-2.27-10.94-2.27-16.62,0-3.95,1-7.65,3.71-10.52a.45.45,0,0,1,.24-.12.39.39,0,0,1,.36.36c0,.06-.06.12-.12.18a10.58,10.58,0,0,0-2.69,7.65c0,5.26,2.15,10.7,2.15,16.26,0,3.89-1,7.65-3.59,10.52,2.63,2.87,3.59,6.64,3.59,10.52C41.59,65.59,39.43,71,39.43,76.29Z"/><text class="cls-7" transform="translate(0 53.42)">P<tspan class="cls-8" x="7.31" y="0">i</tspan><tspan class="cls-9" x="10.72" y="0">a</tspan><tspan class="cls-10" x="16.83" y="0">n</tspan><tspan class="cls-11" x="23.47" y="0">o</tspan></text><path d="M93.48,34a.39.39,0,0,1-.38-.38V30.72l-1.65.62v3.15a.39.39,0,0,1-.38.38.37.37,0,0,1-.36-.38V31.6l-.64.24a.34.34,0,0,1-.14,0,.4.4,0,0,1-.4-.4v-1.2a.41.41,0,0,1,.26-.38l.92-.32V26.38l-.64.22a.34.34,0,0,1-.14,0,.4.4,0,0,1-.4-.4V25a.38.38,0,0,1,.26-.36l.92-.34V21.18a.37.37,0,0,1,.36-.38.39.39,0,0,1,.38.38v2.89l1.65-.62V20.3a.39.39,0,0,1,.38-.38.37.37,0,0,1,.36.38v2.89l.64-.24a.34.34,0,0,1,.14,0,.4.4,0,0,1,.4.4v1.2a.41.41,0,0,1-.26.38l-.92.32v3.19l.64-.22a.34.34,0,0,1,.14,0,.4.4,0,0,1,.4.4v1.2a.38.38,0,0,1-.26.36l-.92.34v3.15A.37.37,0,0,1,93.48,34Zm-2-4.7,1.65-.6V25.5l-1.65.6Z"/><rect class="cls-5" x="96.95" y="57.81" width="0.25" height="23.58"/><rect x="96.95" y="57.81" width="0.25" height="23.58"/><path d="M480.08,36.42a3.67,3.67,0,0,1-2,3,4.53,4.53,0,0,1-2.31.68c-1.1,0-2.15-.56-2.15-1.77a3.67,3.67,0,0,1,2-3,4.53,4.53,0,0,1,2.31-.68C479,34.65,480.08,35.21,480.08,36.42Z"/><path d="M87,36.48a.39.39,0,0,1-.38-.38V33.21L85,33.83V37a.39.39,0,0,1-.38.38.37.37,0,0,1-.36-.38V34.09l-.64.24a.34.34,0,0,1-.14,0,.4.4,0,0,1-.4-.4v-1.2a.41.41,0,0,1,.26-.38l.92-.32V28.87l-.64.22a.34.34,0,0,1-.14,0,.4.4,0,0,1-.4-.4v-1.2a.38.38,0,0,1,.26-.36l.92-.34V23.67a.37.37,0,0,1,.36-.38.39.39,0,0,1,.38.38v2.89l1.65-.62V22.79a.39.39,0,0,1,.38-.38.37.37,0,0,1,.36.38v2.89l.64-.24a.34.34,0,0,1,.14,0,.4.4,0,0,1,.4.4V27a.41.41,0,0,1-.26.38l-.92.32V30.9l.64-.22a.34.34,0,0,1,.14,0,.4.4,0,0,1,.4.4v1.2a.38.38,0,0,1-.26.36l-.92.34V36.1A.37.37,0,0,1,87,36.48Zm-2-4.7,1.65-.6V28l-1.65.6Z"/><rect class="cls-5" x="102.8" y="8.5" width="0.25" height="22.75"/><rect x="102.8" y="8.5" width="0.25" height="22.75"/><path d="M142.22,53.25a3.67,3.67,0,0,1-2,3,4.53,4.53,0,0,1-2.31.68c-1.1,0-2.15-.56-2.15-1.77a3.67,3.67,0,0,1,2-3,4.53,4.53,0,0,1,2.31-.68C141.16,51.48,142.22,52,142.22,53.25Z"/><path d="M142.22,60.72a3.67,3.67,0,0,1-2,3,4.53,4.53,0,0,1-2.31.68c-1.1,0-2.15-.56-2.15-1.77a3.67,3.67,0,0,1,2-3,4.53,4.53,0,0,1,2.31-.68C141.16,58.95,142.22,59.51,142.22,60.72Z"/><path d="M142.22,14a3.67,3.67,0,0,1-2,3,4.53,4.53,0,0,1-2.31.68c-1.1,0-2.15-.56-2.15-1.77a3.67,3.67,0,0,1,2-3,4.53,4.53,0,0,1,2.31-.68C141.16,12.23,142.22,12.79,142.22,14Z"/><path d="M142.22,21.48a3.67,3.67,0,0,1-2,3,4.53,4.53,0,0,1-2.31.68c-1.1,0-2.15-.56-2.15-1.77a3.67,3.67,0,0,1,2-3,4.53,4.53,0,0,1,2.31-.68C141.16,19.7,142.22,20.26,142.22,21.48Z"/><path d="M142.22,28.95a3.67,3.67,0,0,1-2,3,4.53,4.53,0,0,1-2.31.68c-1.1,0-2.15-.56-2.15-1.77a3.67,3.67,0,0,1,2-3,4.53,4.53,0,0,1,2.31-.68C141.16,27.18,142.22,27.73,142.22,28.95Z"/><path d="M136,31.44a3.67,3.67,0,0,1-2,3,4.53,4.53,0,0,1-2.31.68c-1.1,0-2.15-.56-2.15-1.77a3.67,3.67,0,0,1,2-3,4.53,4.53,0,0,1,2.31-.68C135,29.67,136,30.22,136,31.44Zm6.17,0a3.67,3.67,0,0,1-2,3,4.53,4.53,0,0,1-2.31.68c-1.1,0-2.15-.56-2.15-1.77a3.67,3.67,0,0,1,2-3,4.53,4.53,0,0,1,2.31-.68C141.16,29.67,142.22,30.22,142.22,31.44Z"/><rect class="cls-5" x="135.92" y="16.07" width="0.25" height="30.22"/><rect x="135.92" y="16.07" width="0.25" height="30.22"/><path d="M158.93,58.23a3.67,3.67,0,0,1-2,3,4.53,4.53,0,0,1-2.31.68c-1.1,0-2.15-.56-2.15-1.77a3.67,3.67,0,0,1,2-3,4.53,4.53,0,0,1,2.31-.68C157.87,56.46,158.93,57,158.93,58.23Zm5.78,0a3.67,3.67,0,0,1-2,3,4.53,4.53,0,0,1-2.31.68c-1.1,0-2.15-.56-2.15-1.77a3.67,3.67,0,0,1,2-3,4.53,4.53,0,0,1,2.31-.68C163.66,56.46,164.71,57,164.71,58.23Z"/><path d="M164.71,65.7a3.67,3.67,0,0,1-2,3,4.53,4.53,0,0,1-2.31.68c-1.1,0-2.15-.56-2.15-1.77a3.67,3.67,0,0,1,2-3,4.53,4.53,0,0,1,2.31-.68C163.66,63.93,164.71,64.49,164.71,65.7Z"/><path d="M164.71,14a3.67,3.67,0,0,1-2,3,4.53,4.53,0,0,1-2.31.68c-1.1,0-2.15-.56-2.15-1.77a3.67,3.67,0,0,1,2-3,4.53,4.53,0,0,1,2.31-.68C163.66,12.23,164.71,12.79,164.71,14Z"/><path d="M164.71,21.48a3.67,3.67,0,0,1-2,3,4.53,4.53,0,0,1-2.31.68c-1.1,0-2.15-.56-2.15-1.77a3.67,3.67,0,0,1,2-3,4.53,4.53,0,0,1,2.31-.68C163.66,19.7,164.71,20.26,164.71,21.48Z"/><path d="M164.71,31.44a3.67,3.67,0,0,1-2,3,4.53,4.53,0,0,1-2.31.68c-1.1,0-2.15-.56-2.15-1.77a3.67,3.67,0,0,1,2-3,4.53,4.53,0,0,1,2.31-.68C163.66,29.67,164.71,30.22,164.71,31.44Z"/><path d="M158.54,33.93a3.67,3.67,0,0,1-2,3,4.53,4.53,0,0,1-2.31.68c-1.1,0-2.15-.56-2.15-1.77a3.67,3.67,0,0,1,2-3,4.53,4.53,0,0,1,2.31-.68C157.48,32.16,158.54,32.72,158.54,33.93Z"/><rect class="cls-5" x="135.92" y="55.32" width="0.25" height="23.58"/><rect x="135.92" y="55.32" width="0.25" height="23.58"/><path d="M128.35,21.86a.39.39,0,0,1-.38-.38V18.67l-1.49.36v3a.37.37,0,0,1-.36.38.39.39,0,0,1-.38-.38V19.23l-.88.22h-.1a.4.4,0,0,1-.4-.4v-1.2a.38.38,0,0,1,.3-.38l1.08-.28V14l-.88.22-.1,0a.4.4,0,0,1-.4-.4v-1.2a.41.41,0,0,1,.3-.4l1.08-.26V9a.39.39,0,0,1,.38-.38.37.37,0,0,1,.36.38v2.83l1.49-.38v-3a.38.38,0,0,1,.76,0v2.81l1.49-.36v-3a.39.39,0,0,1,.38-.38.37.37,0,0,1,.36.38v2.81l.88-.22h.1a.4.4,0,0,1,.4.4V12a.38.38,0,0,1-.3.38l-1.08.28V15.9l.88-.22.1,0a.4.4,0,0,1,.4.4v1.2a.41.41,0,0,1-.3.4l-1.08.26v3a.37.37,0,0,1-.36.38.39.39,0,0,1-.38-.38V18.09l-1.49.38v3A.39.39,0,0,1,128.35,21.86ZM126.48,17l1.49-.38V13.43l-1.49.38Zm2.25-3.77v3.21l1.49-.38V12.87Z"/><path d="M116.4,29.33A.39.39,0,0,1,116,29V26.14l-1.49.36v3a.37.37,0,0,1-.36.38.39.39,0,0,1-.38-.38V26.7l-.88.22h-.1a.4.4,0,0,1-.4-.4v-1.2a.38.38,0,0,1,.3-.38l1.08-.28V21.46l-.88.22-.1,0a.4.4,0,0,1-.4-.4V20.1a.41.41,0,0,1,.3-.4l1.08-.26v-3a.39.39,0,0,1,.38-.38.37.37,0,0,1,.36.38v2.83l1.49-.38v-3a.38.38,0,1,1,.76,0v2.81l1.49-.36v-3a.39.39,0,0,1,.38-.38.37.37,0,0,1,.36.38v2.81l.88-.22h.1a.4.4,0,0,1,.4.4v1.2a.38.38,0,0,1-.3.38l-1.08.28v3.21l.88-.22.1,0a.4.4,0,0,1,.4.4v1.2a.41.41,0,0,1-.3.4l-1.08.26v3a.37.37,0,0,1-.36.38.39.39,0,0,1-.38-.38V25.56l-1.49.38v3A.39.39,0,0,1,116.4,29.33Zm-1.87-4.84,1.49-.38V20.9l-1.49.38Zm2.25-3.77v3.21l1.49-.38V20.34Z"/><path d="M121.64,39a.39.39,0,0,1-.38-.38V36.26l-.78.44a.39.39,0,0,1-.2.06.4.4,0,0,1-.4-.4v-1.2a.45.45,0,0,1,.2-.36l1.18-.66V31l-.78.44a.36.36,0,0,1-.2,0,.4.4,0,0,1-.4-.4v-1.2a.41.41,0,0,1,.2-.34l1.18-.68V26.12a.39.39,0,0,1,.38-.38.37.37,0,0,1,.36.38v2.37l.78-.44A.39.39,0,0,1,123,28a.4.4,0,0,1,.4.4v1.2a.45.45,0,0,1-.2.36L122,30.6v3.11l.78-.44a.36.36,0,0,1,.2,0,.4.4,0,0,1,.4.4v1.2a.41.41,0,0,1-.2.34l-1.18.68v2.79A.37.37,0,0,1,121.64,39Zm3.09-14.25a1,1,0,0,1,.48.14l0,3.65,2.11-.4h.06a.34.34,0,0,1,.36.34l.14,11.36a1,1,0,0,1-1,0l.06-3.65-2.11.4h-.06a.34.34,0,0,1-.36-.34l-.16-11.36A1.18,1.18,0,0,1,124.72,24.77Zm.42,5.72-.06,4.13,1.83-.34.06-4.13Z"/><path d="M468.35,29.75a1,1,0,0,1,.48.14l0,3.65,2.11-.4H471a.34.34,0,0,1,.36.34l.14,11.36a1,1,0,0,1-1,0l.06-3.65-2.11.4h-.06a.34.34,0,0,1-.36-.34l-.16-11.36A1.18,1.18,0,0,1,468.35,29.75Zm.42,5.72-.06,4.13,1.83-.34.06-4.13Z"/><rect class="cls-5" x="520.41" y="1.86" width="0.25" height="26.9"/><rect x="520.41" y="1.86" width="0.25" height="26.9"/><path d="M515.07,33.93a3.67,3.67,0,0,1-2,3,4.53,4.53,0,0,1-2.31.68c-1.1,0-2.15-.56-2.15-1.77a3.67,3.67,0,0,1,2-3,4.53,4.53,0,0,1,2.31-.68C514,32.16,515.07,32.72,515.07,33.93Z"/><path d="M520.85,36.42a3.67,3.67,0,0,1-2,3,4.53,4.53,0,0,1-2.31.68c-1.1,0-2.15-.56-2.15-1.77a3.67,3.67,0,0,1,2-3,4.53,4.53,0,0,1,2.31-.68C519.8,34.65,520.85,35.21,520.85,36.42Z"/><path d="M520.85,41.4a3.67,3.67,0,0,1-2,3,4.53,4.53,0,0,1-2.31.68c-1.1,0-2.15-.56-2.15-1.77a3.67,3.67,0,0,1,2-3,4.53,4.53,0,0,1,2.31-.68C519.8,39.63,520.85,40.19,520.85,41.4Z"/><path d="M520.85,14a3.67,3.67,0,0,1-2,3,4.53,4.53,0,0,1-2.31.68c-1.1,0-2.15-.56-2.15-1.77a3.67,3.67,0,0,1,2-3,4.53,4.53,0,0,1,2.31-.68C519.8,12.23,520.85,12.79,520.85,14Z"/><path d="M520.85,21.48a3.67,3.67,0,0,1-2,3,4.53,4.53,0,0,1-2.31.68c-1.1,0-2.15-.56-2.15-1.77a3.67,3.67,0,0,1,2-3,4.53,4.53,0,0,1,2.31-.68C519.8,19.7,520.85,20.26,520.85,21.48Z"/><path d="M520.85,29a3.67,3.67,0,0,1-2,3,4.53,4.53,0,0,1-2.31.68c-1.1,0-2.15-.56-2.15-1.77a3.67,3.67,0,0,1,2-3,4.53,4.53,0,0,1,2.31-.68C519.8,27.18,520.85,27.73,520.85,29Z"/><path d="M465.46,44a.39.39,0,0,1-.38-.38V40.69l-1.65.62v3.15a.39.39,0,0,1-.38.38.37.37,0,0,1-.36-.38V41.56l-.64.24a.34.34,0,0,1-.14,0,.4.4,0,0,1-.4-.4v-1.2a.41.41,0,0,1,.26-.38l.92-.32V36.34l-.64.22a.34.34,0,0,1-.14,0,.4.4,0,0,1-.4-.4V35a.38.38,0,0,1,.26-.36l.92-.34V31.14a.37.37,0,0,1,.36-.38.39.39,0,0,1,.38.38V34l1.65-.62V30.26a.39.39,0,0,1,.38-.38.37.37,0,0,1,.36.38v2.89l.64-.24a.34.34,0,0,1,.14,0,.4.4,0,0,1,.4.4v1.2a.41.41,0,0,1-.26.38l-.92.32v3.19l.64-.22a.34.34,0,0,1,.14,0,.4.4,0,0,1,.4.4v1.2a.38.38,0,0,1-.26.36l-.92.34v3.15A.37.37,0,0,1,465.46,44Zm-2-4.7,1.65-.6V35.47l-1.65.6Z"/><path d="M520.85,33.93a3.67,3.67,0,0,1-2,3,4.53,4.53,0,0,1-2.31.68c-1.1,0-2.15-.56-2.15-1.77a3.67,3.67,0,0,1,2-3,4.53,4.53,0,0,1,2.31-.68C519.8,32.16,520.85,32.72,520.85,33.93Z"/><path d="M450.8,33.23a1,1,0,0,1,1.08,0l-.14,6.88a2.87,2.87,0,0,1,1.81-.68,1.91,1.91,0,0,1,1.77,2c0,1.59-1.71,2.33-2.93,3.37-.3.26-.48.76-.9.76a.47.47,0,0,1-.46-.5Zm1.06,9.61v.22a9.71,9.71,0,0,0,.08,1.32c.9-.76,1.85-1.59,1.85-2.77,0-.66-.28-1.34-.86-1.34a1.18,1.18,0,0,0-1.06,1.26Z"/><path d="M459,39a.39.39,0,0,1-.38-.38V35.71l-1.65.62v3.15a.39.39,0,0,1-.38.38.37.37,0,0,1-.36-.38V36.58l-.64.24a.34.34,0,0,1-.14,0,.4.4,0,0,1-.4-.4v-1.2a.41.41,0,0,1,.26-.38l.92-.32V31.36l-.64.22a.34.34,0,0,1-.14,0,.4.4,0,0,1-.4-.4V30a.38.38,0,0,1,.26-.36l.92-.34V26.16a.37.37,0,0,1,.36-.38.39.39,0,0,1,.38.38V29l1.65-.62V25.28a.39.39,0,0,1,.38-.38.37.37,0,0,1,.36.38v2.89l.64-.24a.34.34,0,0,1,.14,0,.4.4,0,0,1,.4.4v1.2a.41.41,0,0,1-.26.38l-.92.32v3.19l.64-.22a.34.34,0,0,1,.14,0,.4.4,0,0,1,.4.4v1.2a.38.38,0,0,1-.26.36l-.92.34V38.6A.37.37,0,0,1,459,39Zm-2-4.7,1.65-.6V30.48l-1.65.6Z"/><rect class="cls-5" x="479.57" y="38.49" width="0.25" height="18.6"/><rect x="479.57" y="38.49" width="0.25" height="18.6"/><path d="M490.61,41.5a.39.39,0,0,1-.38-.38V38.75l-.78.44a.38.38,0,0,1-.2.06.4.4,0,0,1-.4-.4v-1.2a.45.45,0,0,1,.2-.36l1.18-.66V33.53l-.78.44a.36.36,0,0,1-.2,0,.4.4,0,0,1-.4-.4v-1.2a.41.41,0,0,1,.2-.34l1.18-.68V28.61a.39.39,0,0,1,.38-.38.37.37,0,0,1,.36.38V31l.78-.44a.38.38,0,0,1,.2-.06.4.4,0,0,1,.4.4v1.2a.45.45,0,0,1-.2.36l-1.18.66V36.2l.78-.44a.36.36,0,0,1,.2,0,.4.4,0,0,1,.4.4v1.2a.41.41,0,0,1-.2.34l-1.18.68v2.79A.37.37,0,0,1,490.61,41.5Z"/><path d="M497.33,44.27a.39.39,0,0,1-.38-.38V41.09l-1.49.36v3a.37.37,0,0,1-.36.38.39.39,0,0,1-.38-.38V41.64l-.88.22h-.1a.4.4,0,0,1-.4-.4v-1.2a.38.38,0,0,1,.3-.38l1.08-.28V36.4l-.88.22-.1,0a.4.4,0,0,1-.4-.4V35a.41.41,0,0,1,.3-.4l1.08-.26v-3a.39.39,0,0,1,.38-.38.37.37,0,0,1,.36.38v2.83l1.49-.38v-3a.38.38,0,0,1,.76,0v2.81l1.49-.36v-3a.39.39,0,0,1,.38-.38.37.37,0,0,1,.36.38v2.81l.88-.22h.1a.4.4,0,0,1,.4.4v1.2a.38.38,0,0,1-.3.38l-1.08.28v3.21l.88-.22.1,0a.4.4,0,0,1,.4.4v1.2a.41.41,0,0,1-.3.4l-1.08.26v3a.37.37,0,0,1-.36.38.39.39,0,0,1-.38-.38V40.51l-1.49.38v3A.39.39,0,0,1,497.33,44.27Zm-1.87-4.84,1.49-.38V35.84l-1.49.38Zm2.25-3.77v3.21l1.49-.38V35.29Z"/><path d="M506.13,45.59c-.42,0-.6-.5-.9-.76-1.22-1-2.93-1.77-2.93-3.37a1.91,1.91,0,0,1,1.77-2,2.87,2.87,0,0,1,1.81.68l-.14-6.88a1,1,0,0,1,1.08,0l-.24,11.86A.47.47,0,0,1,506.13,45.59Zm-1.43-5.32c-.58,0-.86.68-.86,1.34,0,1.18,1,2,1.85,2.77a9.71,9.71,0,0,0,.08-1.32v-.22l0-1.32A1.18,1.18,0,0,0,504.7,40.27Z"/><path d="M509.51,7.33a1,1,0,0,1,.48.14l0,3.65,2.11-.4h.06a.34.34,0,0,1,.36.34l.14,11.36a1,1,0,0,1-1,0l.06-3.65-2.11.4h-.06a.34.34,0,0,1-.36-.34L509,7.47A1.18,1.18,0,0,1,509.51,7.33Zm.42,5.72-.06,4.13,1.83-.34.06-4.13Z"/><path d="M505.12,14.8a1,1,0,0,1,.48.14l0,3.65,2.11-.4h.06a.34.34,0,0,1,.36.34l.14,11.36a1,1,0,0,1-1,0l.06-3.65-2.11.4h-.06a.34.34,0,0,1-.36-.34l-.16-11.36A1.18,1.18,0,0,1,505.12,14.8Zm.42,5.72-.06,4.13,1.83-.34.06-4.13Z"/><rect class="cls-5" x="514.56" y="36" width="0.25" height="18.6"/><rect x="514.56" y="36" width="0.25" height="18.6"/></g></g></svg>